<svg width="48" height="48" viewBox="0 0 48 48" fill="none" xmlns="http://www.w3.org/2000/svg">
<g id="&#195;&#141;cone Cashback">
<g id="Group 3">
<g id="Clip path group">
<mask id="mask0_1229_1442" style="mask-type:luminance" maskUnits="userSpaceOnUse" x="12" y="9" width="15" height="17">
<g id="d565a86d01">
<path id="Vector" d="M12.873 9H26.8204V25.9449H12.873V9Z" fill="white"/>
</g>
</mask>
<g mask="url(#mask0_1229_1442)">
<g id="Group">
<path id="Vector_2" d="M26.4743 15.0486C26.9141 14.5966 26.9141 13.8675 26.4743 13.4175L22.7977 9.64061C22.3599 9.19271 21.6456 9.19271 21.2097 9.64061C20.7678 10.0927 20.7678 10.8239 21.2097 11.2738L22.9632 13.0758H17.9993C15.2248 13.0758 12.9668 15.3945 12.9668 18.2422V24.5919C12.9668 25.2293 13.4692 25.748 14.0928 25.748C14.7122 25.748 15.2147 25.2335 15.2147 24.5919V18.2464C15.2147 16.6715 16.4657 15.3882 17.9993 15.3882H22.9672L21.2117 17.1902C20.7718 17.6422 20.7718 18.3735 21.2117 18.8234C21.4317 19.0463 21.7182 19.1609 22.0088 19.1609C22.2953 19.1609 22.5859 19.0463 22.8038 18.8234L26.4743 15.0486Z" fill="#4D5858"/>
</g>
</g>
</g>
<path id="Vector_3" d="M34.9106 22.2363C34.2912 22.2363 33.7847 22.753 33.7847 23.3883V29.738C33.7847 31.3129 32.5356 32.5962 31.0021 32.5962H26.0402L27.7937 30.7942C28.2356 30.3421 28.2356 29.6109 27.7937 29.163C27.3578 28.7089 26.6435 28.7089 26.2057 29.163L22.5291 32.9378C22.0892 33.392 22.0892 34.119 22.5291 34.5711L26.2057 38.3438C26.4236 38.5687 26.7121 38.6812 27.0027 38.6812C27.2913 38.6812 27.5758 38.5687 27.7977 38.3438C28.2376 37.8917 28.2376 37.1605 27.7977 36.7126L26.0422 34.9085H31.0081C33.7806 34.9085 36.0386 32.5899 36.0386 29.7422V23.3925C36.0366 22.753 35.5342 22.2363 34.9106 22.2363Z" fill="#4D5858"/>
<g id="Clip path group_2">
<mask id="mask1_1229_1442" style="mask-type:luminance" maskUnits="userSpaceOnUse" x="9" y="28" width="11" height="11">
<g id="aea76e59dc">
<path id="Vector_4" d="M9 28.0801H20V39.0003H9V28.0801Z" fill="white"/>
</g>
</mask>
<g mask="url(#mask1_1229_1442)">
<g id="Group_2">
<path id="Vector_5" d="M17.8981 29H11.1019C9.94192 29 9 29.8531 9 30.9075V37.0885C9 38.1429 9.94192 39 11.1019 39H17.8981C19.0581 39 20 38.1429 20 37.0885V30.9075C20 29.8531 19.0581 29 17.8981 29Z" fill="#4D5858"/>
</g>
</g>
</g>
<g id="Clip path group_3">
<mask id="mask2_1229_1442" style="mask-type:luminance" maskUnits="userSpaceOnUse" x="29" y="9" width="11" height="11">
<g id="1c087e7208">
<path id="Vector_6" d="M29 9H39.9979V19.5452H29V9Z" fill="white"/>
</g>
</mask>
<g mask="url(#mask2_1229_1442)">
<g id="Group_3">
<path id="Vector_7" d="M37.8981 9H31.1019C29.9419 9 29 9.85674 29 10.9068V17.0893C29 18.1433 29.9419 19 31.1019 19H37.8981C39.0581 19 40 18.1433 40 17.0893V10.9068C40 9.85276 39.0581 9 37.8981 9Z" fill="#4D5858"/>
</g>
</g>
</g>
</g>
</g>
</svg>
