<svg width="48" height="48" viewBox="0 0 48 48" fill="none" xmlns="http://www.w3.org/2000/svg">
<g id="&#195;&#141;cone Seguran&#195;&#167;a">
<path id="Vector" d="M36.6528 14.9508C36.5369 14.817 36.395 14.7088 36.236 14.6329C36.0769 14.5571 35.904 14.5153 35.7282 14.5102C32.9974 14.438 29.5419 11.4835 27.2573 10.3241C25.846 9.61016 24.9143 9.13942 24.2147 9.01541C24.0726 8.99447 23.9283 8.99487 23.7863 9.01662C23.0866 9.14062 22.1549 9.61136 20.7449 10.3253C18.4603 11.4835 15.0048 14.438 12.2739 14.5102C12.098 14.5156 11.9251 14.5575 11.7658 14.6333C11.6066 14.7091 11.4644 14.8172 11.3482 14.9508C11.1072 15.2267 10.9828 15.5872 11.0019 15.9549C11.5885 28.022 15.8663 35.49 23.3722 39.8302C23.5674 39.9422 23.7839 40 23.9993 40C24.2147 40 24.4312 39.9422 24.6276 39.8302C32.1335 35.49 36.4101 28.022 36.9979 15.9549C37.018 15.5873 36.894 15.2265 36.6528 14.9508ZM30.6842 19.6968L24.3503 29.1537C24.123 29.4932 23.7661 29.7184 23.4127 29.7184C23.0581 29.7184 22.6642 29.5221 22.4155 29.2705L17.951 24.7521C17.8052 24.6041 17.7234 24.4036 17.7234 24.1947C17.7234 23.9857 17.8052 23.7853 17.951 23.6373L19.054 22.5188C19.2006 22.3719 19.3986 22.2895 19.605 22.2895C19.8113 22.2895 20.0093 22.3719 20.1559 22.5188L23.0593 25.4564L28.1033 17.9234C28.22 17.751 28.3994 17.6323 28.6023 17.5933C28.8051 17.5543 29.015 17.5981 29.1861 17.7151L30.4772 18.6012C30.6477 18.7191 30.7653 18.9005 30.804 19.1058C30.8428 19.311 30.7998 19.5235 30.6842 19.6968Z" fill="#343B22"/>
</g>
</svg>
