<svg width="48" height="48" viewBox="0 0 48 48" fill="none" xmlns="http://www.w3.org/2000/svg">
<g id="&#195;&#141;cone Atendimento">
<path id="Atendimento" d="M8 32.2791V10.6295C8 10.2674 8.16792 9.9053 8.50375 9.54318C8.83958 9.18106 9.18833 9 9.55 9H29.6613C30.0487 9 30.4104 9.17459 30.7463 9.52378C31.0821 9.87297 31.25 10.2416 31.25 10.6295V24.4418C31.25 24.8039 31.0821 25.166 30.7463 25.5282C30.4104 25.8903 30.0487 26.0713 29.6613 26.0713H14.2L8 32.2791ZM15.7888 33.831C15.4271 33.831 15.0719 33.65 14.7231 33.2879C14.3744 32.9257 14.2 32.5636 14.2 32.2015V28.3993H33.575V15.2078H37.45C37.8117 15.2078 38.1604 15.3888 38.4963 15.7509C38.8321 16.1131 39 16.4881 39 16.8761V40L32.8388 33.831H15.7888ZM28.925 11.3279H10.325V26.6533L13.2312 23.7434H28.925V11.3279Z" fill="#343B22"/>
</g>
</svg>
