<svg width="48" height="48" viewBox="0 0 48 48" fill="none" xmlns="http://www.w3.org/2000/svg">
<g id="&#195;&#141;cone Medalha">
<path id="Medalha" d="M21.5474 15.9676L17.3617 8.94697C17.1896 8.65816 16.9462 8.41914 16.655 8.25319C16.3638 8.08723 16.0349 8 15.7003 8H8.97053C8.18644 8 7.72749 8.88786 8.17675 9.53441L14.9138 19.2211C16.7133 17.5288 19.002 16.3674 21.5474 15.9676ZM38.0295 8H31.2997C30.6191 8 29.9882 8.35953 29.6383 8.94697L25.4526 15.9676C27.998 16.3674 30.2867 17.5288 32.0862 19.2205L38.8232 9.53441C39.2725 8.88786 38.8136 8 38.0295 8ZM23.5 17.75C17.6148 17.75 12.8437 22.5519 12.8437 28.4751C12.8437 34.3982 17.6148 39.2001 23.5 39.2001C29.3852 39.2001 34.1563 34.3982 34.1563 28.4751C34.1563 22.5519 29.3852 17.75 23.5 17.75ZM29.1018 27.3331L26.8053 29.5853L27.3484 32.7675C27.4452 33.3379 26.8483 33.7736 26.3403 33.5042L23.5 32.0021L20.6603 33.5042C20.1517 33.7754 19.5554 33.3373 19.6522 32.7675L20.1953 29.5853L17.8988 27.3331C17.4859 26.9285 17.7141 26.2222 18.2833 26.1393L21.4577 25.6738L22.8764 22.778C23.0041 22.5172 23.2512 22.3886 23.4988 22.3886C23.7476 22.3886 23.9965 22.519 24.1242 22.778L25.5429 25.6738L28.7173 26.1393C29.2865 26.2222 29.5147 26.9285 29.1018 27.3331Z" fill="#343B22"/>
</g>
</svg>
