<svg width="48" height="48" viewBox="0 0 48 48" fill="none" xmlns="http://www.w3.org/2000/svg">
<g id="&#195;&#141;cone Cart&#195;&#163;o">
<path id="Cart&#195;&#163;o" d="M8 33.4286C8 34.8482 9.15712 36 10.5833 36H36.4167C37.8429 36 39 34.8482 39 33.4286V24H8V33.4286ZM18.3333 29.7857C18.3333 29.4321 18.624 29.1429 18.9792 29.1429H26.2986C26.6538 29.1429 26.9444 29.4321 26.9444 29.7857V31.9286C26.9444 32.2821 26.6538 32.5714 26.2986 32.5714H18.9792C18.624 32.5714 18.3333 32.2821 18.3333 31.9286V29.7857ZM11.4444 29.7857C11.4444 29.4321 11.7351 29.1429 12.0903 29.1429H15.9653C16.3205 29.1429 16.6111 29.4321 16.6111 29.7857V31.9286C16.6111 32.2821 16.3205 32.5714 15.9653 32.5714H12.0903C11.7351 32.5714 11.4444 32.2821 11.4444 31.9286V29.7857ZM39 14.5714V17.1429H8V14.5714C8 13.1518 9.15712 12 10.5833 12H36.4167C37.8429 12 39 13.1518 39 14.5714Z" fill="#343B22"/>
</g>
</svg>
