<svg width="156" height="99" viewBox="0 0 156 99" fill="none" xmlns="http://www.w3.org/2000/svg">
<g id="Group 18">
<g id="Group">
<path id="Vector" d="M79.155 24.9863C79.3022 24.8658 79.4593 24.7565 79.5964 24.6248C83.2164 21.1432 86.6449 17.492 89.5392 13.3953C90.4663 12.0839 91.2506 10.6744 92.1034 9.31254C92.3848 8.8628 92.4105 8.42146 92.2863 7.88906C92.0434 6.85366 91.8634 5.79726 91.7691 4.73945C91.662 3.54434 91.9763 2.42208 92.7234 1.44413C93.1591 0.873895 93.6905 0.419949 94.3805 0.160751C95.3748 -0.211933 96.1934 0.0640754 96.7148 0.981777C97.1248 1.70473 97.1762 2.49774 97.1433 3.31036C97.1162 3.97026 97.1291 4.63297 97.1491 5.29427C97.1848 6.46557 96.6233 7.37066 95.7319 8.03757C95.1234 8.49292 94.3677 8.75352 93.6863 9.11779C93.4348 9.2523 93.1034 9.3798 92.9863 9.60116C91.7463 11.9494 90.222 14.1126 88.5835 16.2044C88.5078 16.3011 88.4792 16.4328 88.3892 16.6429C89.9163 15.99 91.3492 15.3918 92.7663 14.7585C93.062 14.6268 93.312 14.3802 93.5563 14.1588C94.7434 13.08 96.0305 12.1763 97.6591 11.8569C98.6091 11.6705 99.5505 11.686 100.476 11.9942C101.432 12.3108 102.236 13.1697 102.07 14.1616C102.019 14.4671 102.16 14.8117 102.246 15.1298C102.589 16.3992 102.133 17.2496 100.83 17.5256C100.215 17.6559 99.5405 17.6629 98.9147 17.5733C96.9619 17.2958 95.0162 16.9694 93.3548 15.7799C93.172 15.6496 92.7777 15.721 92.512 15.7995C90.3363 16.4482 88.4278 17.5915 86.6192 18.9113C85.6549 19.616 84.5607 20.7761 83.9935 21.7428C85.5335 21.0451 87.0964 20.9709 88.372 19.9228C90.1577 18.4573 92.3234 17.7204 94.6505 17.5649C95.2391 17.5256 95.8648 17.6797 96.4376 17.8563C97.2291 18.1001 97.7705 18.6493 97.9576 19.4689C98.0805 20.0083 98.369 20.423 98.7448 20.8335C99.1705 21.2973 99.5676 21.8185 99.8376 22.3803C100.402 23.5586 100.006 24.7916 98.9162 25.5496C97.9533 26.2207 96.8562 26.4981 95.7248 26.2627C94.7062 26.0511 93.6677 25.7527 92.7548 25.2763C91.2277 24.4763 89.7806 23.511 88.6263 22.2192C88.0406 21.5635 87.4749 21.4626 86.6635 21.7723C85.4621 22.2304 84.2078 22.5569 82.9921 22.9814C82.6236 23.1103 82.245 23.319 81.9721 23.5895C77.5608 27.9496 72.8694 31.9889 67.7995 35.5994C67.6966 35.6723 67.6223 35.7844 67.6109 36.0127C68.158 35.7479 68.7066 35.4873 69.2523 35.2183C69.798 34.9479 70.3466 34.6803 70.8823 34.3903C73.5365 32.957 76.2151 31.5798 79.1936 30.8946C79.6607 30.7868 79.9664 30.5346 80.1879 30.124C80.4422 29.6533 80.7536 29.2134 81.0179 28.7468C81.9564 27.0893 83.3721 25.8998 85.0164 24.9891C86.4792 24.1779 88.0635 23.8683 89.732 24.3727C91.1749 24.8084 92.2734 25.649 92.8348 27.0459C93.0863 27.6708 93.5063 28.0631 94.0591 28.4372C95.6105 29.4866 96.8005 30.8386 97.2248 32.6964C97.9391 35.8194 96.0334 38.3469 92.7691 38.4786C91.6706 38.5235 90.5563 38.2292 89.452 38.0765C89.1877 38.0401 88.932 37.949 88.7792 37.9098C88.5478 38.9746 88.3163 39.996 88.1063 41.0216C88.0535 41.278 88.0549 41.5484 88.0635 41.8104C88.1249 43.8041 87.3449 45.4504 85.8735 46.7814C84.8221 47.7327 83.5964 47.8854 82.2693 47.3824C81.0007 46.9033 79.9993 46.0514 79.0365 45.1547C77.6465 43.8601 76.4836 42.3988 75.6651 40.6797C74.9922 39.266 74.6751 37.7851 74.718 36.1458C72.7723 35.811 70.9394 35.3444 69.028 36.2986C67.5223 37.0495 65.8809 37.5357 64.3081 38.1606C63.8395 38.3469 63.381 38.5725 62.951 38.8331C60.461 40.3449 57.9096 41.7347 55.1625 42.7519C54.9097 42.8458 54.6482 42.9452 54.3839 42.9677C54.2611 42.9775 54.0554 42.829 54.0125 42.7085C53.9697 42.5922 54.0425 42.3638 54.144 42.2839C54.3225 42.1424 54.5639 42.078 54.7768 41.9771C56.5839 41.1281 58.3867 40.2706 60.1982 39.43C60.8239 39.1385 61.1696 38.6594 61.4181 38.0359C62.0996 36.3182 62.181 34.6047 61.561 32.8561C61.4081 32.426 61.1853 32.1206 60.7724 31.8768C59.6353 31.2029 58.5553 30.4519 57.8482 29.2946C57.1553 28.1611 57.0225 26.987 57.5082 25.7499C57.821 24.9541 58.3567 24.4133 59.221 24.1779C59.5653 24.084 59.9224 23.9145 60.1896 23.6833C61.1539 22.8525 62.2267 22.3733 63.781 22.5597C63.8367 22.2724 63.8452 21.925 63.9724 21.6252C64.9281 19.3708 67.1809 18.6086 69.3337 19.8192C69.7923 20.077 70.2194 20.1905 70.7609 20.1806C73.8037 20.1274 75.7108 23.0528 74.4265 25.7639C73.628 27.4508 72.2394 28.5633 70.5609 29.303C69.6723 29.6953 68.698 29.9237 67.7409 30.1325C67.1395 30.2628 66.7038 30.5093 66.3081 30.9731C65.2124 32.2537 64.2052 33.5861 63.3881 35.0586C62.8953 35.9483 62.7253 36.9164 62.6081 37.9784C63.3924 37.4825 64.1895 37.0061 64.9567 36.4891C69.3595 33.5202 73.4965 30.2263 77.4179 26.669C77.8222 26.3019 78.0522 25.925 78.0408 25.38C78.0336 25.0157 78.0708 24.6431 78.1522 24.2872C78.4493 22.9982 78.0393 21.8577 77.4351 20.7495C77.3708 20.6318 77.2836 20.5253 77.2308 20.4034C76.7251 19.2279 75.9451 18.6171 74.5237 18.6157C73.2508 18.6143 71.9608 18.3046 70.7109 18.002C68.8123 17.5438 67.6166 15.8527 67.748 13.9739C67.8409 12.6611 68.4638 11.6719 69.7352 11.1984C70.418 10.9448 70.8809 10.5665 71.198 9.92201C71.5494 9.20887 72.1708 8.7339 72.9108 8.41866C74.0951 7.91287 75.1708 8.10622 76.1251 8.93566C76.9179 9.62498 77.3665 10.5217 77.5693 11.522C77.9736 13.5073 77.8036 15.4352 76.8593 17.2664C76.7822 17.4149 76.7108 17.5648 76.6393 17.7162C76.6251 17.7456 76.6279 17.782 76.6222 17.8254C77.2836 18.851 77.9479 19.885 78.6636 20.9947C78.7693 20.7803 78.8736 20.5968 78.9536 20.402C79.4293 19.2629 79.8722 18.1085 80.3864 16.9862C80.5679 16.5911 80.6136 16.2633 80.4879 15.8485C80.2564 15.0836 80.0364 14.3088 79.9093 13.5214C79.6864 12.1413 79.8807 10.7907 80.4722 9.5157C81.0221 8.32899 81.8879 7.59063 83.3164 7.64247C83.7121 7.65648 84.1207 7.54019 84.5121 7.43931C86.5035 6.92092 87.9263 7.99974 87.8078 10.0229C87.642 12.8292 86.1721 14.907 83.865 16.4622C83.1921 16.9148 82.4807 17.293 81.635 17.3953C81.3836 17.4261 81.0521 17.6405 80.945 17.8591C79.865 20.0728 79.1636 22.3929 79.0493 24.8602C79.0493 24.8812 79.0836 24.9037 79.1493 24.9849L79.155 24.9863ZM94.7491 4.72404H94.7391C94.782 4.9314 94.9077 5.16397 94.8505 5.33911C94.7077 5.78044 94.4805 6.19516 94.2948 6.62389C94.2777 6.66452 94.3248 6.73037 94.342 6.78781C94.552 6.69815 94.7648 6.60708 95.1834 6.42774C94.792 7.00218 94.5305 7.38327 94.2705 7.76576C95.3591 7.35945 96.1219 6.67713 96.2234 5.54366C96.3019 4.65819 96.2534 3.7601 96.2419 2.86902C96.2376 2.57199 96.2076 2.26656 96.1319 1.98074C95.8177 0.803841 95.0905 0.575468 94.112 1.32924C92.7963 2.34222 92.3177 4.13559 92.9105 5.95698C93.1677 5.05889 93.0906 4.11037 93.7634 3.3636C93.7534 3.75169 93.7448 4.14119 93.7334 4.58393C93.9334 4.4186 94.0462 4.32333 94.3434 4.07674C94.2377 4.73385 94.1691 5.16397 94.1005 5.5941C94.142 5.60811 94.1848 5.62212 94.2262 5.63613C94.4005 5.3321 94.5748 5.02807 94.7491 4.72404ZM98.7019 12.7396L98.7491 12.755C97.6976 12.6485 97.2533 12.769 96.5419 13.3462C96.9319 13.3995 97.3062 12.8923 97.8376 13.3476C97.3291 13.5648 96.8991 13.7483 96.3676 13.9767C96.9534 14.121 97.4419 13.6923 97.9948 14.1602C97.4091 14.3326 96.9376 14.4713 96.3562 14.6422C97.0191 14.8664 97.6262 14.5582 98.2476 15.0023C97.5933 15.3287 96.9262 15.0359 96.3119 15.3666C96.9734 15.5053 97.5291 15.6216 98.0862 15.7379V15.721C97.8433 16.0195 97.5205 16.0321 97.1662 15.99C96.7948 15.9466 96.4191 15.9368 96.0448 15.9116C97.4348 16.4608 98.8462 16.8293 100.32 16.7354C101.32 16.6724 101.608 16.1862 101.352 15.2419C101.249 14.8636 101.143 14.4671 101.158 14.0818C101.178 13.4807 100.879 13.0856 100.37 12.9371C99.8419 12.783 99.2619 12.7984 98.7048 12.7396H98.7019ZM65.4352 24.8518C65.6524 24.8518 65.8681 24.8518 66.1195 24.8504C66.2324 25.5229 66.3381 26.1576 66.4438 26.7937C66.4838 26.7895 66.5238 26.7853 66.5623 26.7811C66.6581 25.9152 66.7552 25.048 66.8509 24.1821C66.9481 24.1849 67.0452 24.1891 67.1409 24.1919C67.3409 25.2245 66.9195 26.3019 67.2152 27.5573C67.3809 26.9562 67.4881 26.5751 67.5909 26.1912C67.6866 25.8368 67.758 25.4767 67.8752 25.1292C67.9895 24.7916 67.9395 24.3712 68.438 23.9677C68.4852 25.2665 67.8823 26.2767 67.9366 27.3808C68.2309 26.9562 68.4009 26.4869 68.6523 26.0637C68.8937 25.6574 68.8437 25.0312 69.6552 24.7916C69.1295 26.0203 68.6695 27.0977 68.1409 28.3335C69.0752 27.5783 69.308 26.4981 70.0952 25.8718C70.1666 25.918 70.2366 25.9643 70.308 26.0105C69.9109 26.7068 69.5152 27.4032 69.118 28.0995C69.1566 28.1317 69.1966 28.1625 69.2352 28.1948C69.758 27.7114 70.2809 27.2266 70.9109 26.6438C70.9409 27.703 69.9166 27.9398 69.5152 28.7804C71.3166 28.0715 72.6523 27.1159 73.5094 25.5874C74.1237 24.4931 74.0537 23.3947 73.4065 22.3607C72.7751 21.3533 71.7351 21.0073 70.5966 21.0913C69.9694 21.1376 69.5023 20.9779 68.9937 20.6612C67.1952 19.5418 65.2567 20.2983 64.6638 22.3117C64.5552 22.6788 64.5809 22.9646 64.8267 23.3233C65.1324 23.7702 65.2524 24.3404 65.4652 24.8644C65.7366 25.4431 65.2595 26.1646 65.9366 26.8596C65.7709 26.0595 65.9938 25.373 65.4324 24.8504L65.4352 24.8518ZM86.8621 33.4011L86.7778 33.687C85.5049 33.6071 84.3064 33.1195 83.0307 32.9374C83.915 33.5216 84.8421 33.9896 85.7621 34.4688C86.1206 34.6551 86.4349 34.8162 86.8992 34.7112C87.2778 34.6257 87.7592 34.6761 88.2063 35.1161C87.8263 35.1931 87.5649 35.2464 87.2435 35.3122C87.7935 35.9875 88.2035 36.7385 89.0606 37.0243C90.3234 37.446 91.6177 37.7347 92.962 37.596C95.4705 37.3368 96.8734 35.4201 96.3691 33.0089C95.9934 31.2113 94.8062 30.012 93.3363 29.0424C92.8048 28.6922 92.402 28.3153 92.182 27.7156C91.3591 25.4809 88.912 24.5758 86.7492 25.2497C84.9407 25.813 83.5193 26.9142 82.3721 28.3741C82.2021 28.5899 82.0793 28.8421 81.9336 29.0774C82.9693 28.468 83.8335 27.6666 85.0007 27.3597C84.0935 28.3657 82.7278 28.8519 81.8693 30.1829C82.695 29.8298 83.3293 29.5062 83.9978 29.2876C84.6278 29.0816 85.2035 28.5871 86.1706 28.8182C84.7478 29.4277 83.5164 29.9531 82.2864 30.4799C83.0564 30.5766 83.7578 30.3762 84.4664 30.2067C85.9792 29.8466 86.0578 29.848 86.6521 30.1535C85.0435 30.5346 83.5407 30.8918 82.0393 31.2477C82.5707 31.4411 83.0964 31.5013 83.625 31.5209C84.2007 31.5419 84.7807 31.4999 85.3549 31.5307C85.8535 31.5587 86.3949 31.2603 86.9463 31.7045C86.2049 32.0659 85.4821 31.9454 84.7921 31.9833C84.0664 32.0239 83.3335 31.9693 82.605 31.9566C82.5907 32.0281 82.5764 32.0996 82.5621 32.171C83.995 32.5815 85.4278 32.992 86.8621 33.404V33.4011ZM77.4808 36.4275C77.4579 36.4835 77.4365 36.541 77.4136 36.597C78.0536 36.81 78.6922 37.0257 79.3336 37.2373C79.9507 37.4404 80.5679 37.638 81.1864 37.8369L81.0893 38.1704C79.565 37.9042 78.1379 37.2107 76.5936 36.9669C77.2051 37.404 77.8579 37.7431 78.495 38.1101C79.1365 38.48 79.9122 38.6426 80.565 39.3291C79.7479 39.3571 79.275 38.941 78.7407 38.7182C78.1893 38.4884 77.6608 38.204 77.1222 37.9434L77.0079 38.134C77.4822 38.5501 77.9722 38.9494 78.4265 39.3865C78.875 39.8167 79.5465 40.0324 79.7436 40.7203C78.3808 40.0618 77.2836 39.0657 76.2051 38.0373C76.7979 39.3879 77.6993 40.506 78.6579 41.5876C78.7793 41.7235 78.8179 41.9295 78.895 42.1032C77.6551 41.3634 76.9522 40.2019 76.0951 39.175C76.7293 41.2514 77.9622 42.9452 79.5493 44.3743C80.4164 45.1547 81.3836 45.8539 82.3921 46.4493C83.3007 46.9859 84.3121 46.9215 85.1507 46.2139C86.4806 45.0903 87.1706 43.6598 87.1721 41.9155C87.1721 41.4279 87.2678 40.9389 87.3549 40.4555C87.4206 40.0969 87.5921 39.7522 87.6321 39.3935C87.8506 37.3816 87.3635 36.2874 85.9078 35.5826C83.9121 34.6159 81.7864 34.6047 79.4665 35.1567C80.3464 35.3402 81.0921 34.9241 81.7693 35.5084C80.7007 35.6274 79.6322 35.7451 78.5636 35.8642C79.5922 36.2565 80.6707 36.2804 81.695 36.6502C81.6136 36.7847 81.5936 36.8394 81.5793 36.838C80.2136 36.7049 78.8493 36.5676 77.4836 36.4303L77.4808 36.4275ZM72.3194 15.2573C72.3837 15.176 72.448 15.0948 72.5123 15.0135C73.2351 15.5781 73.958 16.1428 74.6808 16.7074C74.5737 16.2352 74.3151 15.9256 74.1322 15.5767C73.9722 15.2741 73.488 15.0625 73.748 14.5385C74.4522 15.1004 74.7522 15.9438 75.4879 16.3922C75.3679 15.955 75.1794 15.5641 75.0208 15.1634C74.8765 14.7991 74.5994 14.4629 74.6108 14.058C74.6922 14.0243 74.7737 13.9893 74.8551 13.9557C75.2308 14.6688 75.6065 15.3834 76.0294 16.1862C76.3151 15.2026 75.7036 14.369 76.1436 13.5073C76.2865 13.9809 76.4293 14.4545 76.6036 15.0331C76.9751 13.6503 76.9479 12.06 76.4808 10.991C76.0551 10.0159 75.4651 9.14582 74.2394 9.06315C73.0608 8.98469 72.3751 9.70064 71.8351 10.6099C71.818 10.6394 71.8008 10.6674 71.788 10.6982C71.508 11.3105 71.0366 11.6733 70.3894 11.9143C68.778 12.5154 68.2195 13.9277 68.9266 15.4674C69.5766 16.8853 71.2651 17.6503 73.1665 17.3925C72.8251 16.9764 72.0737 17.0479 71.828 16.2548C72.718 16.6331 73.4751 16.9554 74.2322 17.2776C74.2637 17.2272 74.2937 17.1768 74.3251 17.1263C73.6565 16.5028 72.9865 15.8808 72.318 15.2573H72.3194ZM93.8448 21.2413C93.8377 21.3435 93.8305 21.4444 93.822 21.5467L91.1749 21.4192C91.9977 21.9418 92.9591 21.9936 93.7334 22.4742C93.7048 22.5597 93.6763 22.6465 93.6491 22.732C92.7691 22.5064 91.8891 22.2809 91.0092 22.0553C91.2977 22.3915 91.6406 22.5793 91.9806 22.7712C92.351 22.9795 92.582 23.2579 92.6734 23.6063C92.0363 23.298 91.4363 23.008 90.8377 22.718C91.8234 23.6777 92.8691 24.5282 94.1648 24.9611C94.8619 25.1951 95.6105 25.3898 96.3377 25.3996C96.9519 25.408 97.6205 25.2189 98.1762 24.9457C99.2105 24.4371 99.469 23.3583 98.8648 22.3985C98.6348 22.0329 98.3533 21.6882 98.0419 21.387C97.5948 20.954 97.2548 20.4931 97.1476 19.8654C97.0191 19.1186 96.4819 18.7109 95.7734 18.5624C95.3177 18.4671 94.8148 18.4041 94.3662 18.4896C93.3391 18.6871 92.3306 18.9785 91.3192 19.2489C91.1677 19.2896 91.0434 19.4269 90.8106 19.5852C91.5534 19.6735 92.0906 19.0598 92.8534 19.4829C92.2491 19.6987 91.7749 19.8668 91.3006 20.0363C91.3163 20.0812 91.332 20.126 91.3477 20.1708C92.0591 20.1512 92.7705 20.1316 93.482 20.112C93.4905 20.2073 93.4991 20.3039 93.5077 20.3992C92.6948 20.5127 91.882 20.6248 91.0692 20.7383C91.0777 20.7831 91.0863 20.8293 91.0934 20.8742C92.012 20.9961 92.9291 21.118 93.8477 21.2413H93.8448ZM81.9564 14.8944C82.6564 14.2625 82.6978 13.2832 83.455 12.4327C83.5264 13.3672 82.9693 13.9095 82.9293 14.6086C83.7278 14.1504 83.765 13.1235 84.4935 12.6975C84.6007 12.7564 84.7064 12.8152 84.8135 12.8741C84.585 13.1557 84.3578 13.4387 84.1292 13.7203C84.2178 13.7679 84.3078 13.8156 84.3964 13.8632C84.7649 13.4933 85.1321 13.1235 85.5006 12.7536C85.5506 12.7872 85.6021 12.8194 85.6521 12.8531C85.6278 13.0492 85.6035 13.2439 85.5707 13.5144C86.4378 12.4187 86.8421 11.3497 86.9064 10.0579C86.9792 8.57978 86.2192 7.96191 84.7592 8.27995C84.1692 8.40885 83.5521 8.41866 82.9693 8.56858C82.5635 8.67366 82.1207 8.84459 81.8293 9.1234C80.8993 10.0145 80.4936 12.2506 80.9536 13.5102C81.1621 13.2271 80.9479 12.7242 81.5236 12.4804C81.515 13.087 81.5079 13.5914 81.4979 14.2429C81.965 13.6769 81.7893 12.9805 82.3293 12.5322C82.5693 13.045 82.3221 13.4065 82.2479 13.775C82.1707 14.1518 82.0564 14.5217 81.9578 14.8944H81.9564ZM61.5838 27.2715L61.921 27.2855C61.9538 28.1233 61.9881 28.9612 62.021 29.7976C62.321 29.4235 62.4267 29.0172 62.5853 28.6319C62.7281 28.2858 62.6324 27.7941 63.2281 27.5461C63.1395 28.0981 63.0695 28.5324 63.001 28.9654C64.1024 27.8291 64.7824 26.5527 64.5967 24.9625C64.4595 23.7856 63.5053 23.1257 62.3524 23.4998C61.7924 23.6819 61.3053 24.0812 60.7824 24.3755C60.3781 24.6024 59.991 24.9177 59.5553 25.0185C58.9053 25.1685 58.5567 25.5524 58.3467 26.1044C57.8196 27.4914 58.3153 28.6249 59.2153 29.5776C59.421 29.3633 59.611 29.1657 59.8839 28.8841C59.8682 28.737 59.8339 28.4161 59.7982 28.0967C59.8582 28.0827 59.9182 28.0687 59.9796 28.0547C60.2081 28.4918 60.4353 28.9275 60.7353 29.502C60.8653 28.6347 60.381 27.9482 60.781 27.2519C60.941 27.5825 61.0138 27.9258 61.0938 28.2676C61.1753 28.6137 61.2624 28.9598 61.3467 29.3044L61.4896 29.275C61.521 28.6067 61.5524 27.9384 61.5853 27.2715H61.5838ZM72.3251 34.6201C72.3351 34.6887 72.3437 34.756 72.3537 34.8246C73.0751 34.9409 73.8094 35.0096 74.5137 35.1889C75.2422 35.3753 75.8951 35.2562 76.5908 35.0376C77.7479 34.6747 78.9322 34.3973 80.1093 34.0989C80.4893 34.0022 80.885 33.9588 81.3864 33.8705C80.7179 33.0803 80.1307 32.384 79.5465 31.6932C76.9451 32.3391 74.6108 33.425 72.3237 34.6201H72.3251ZM62.8338 34.0779C63.4395 33.2246 63.9295 32.4792 64.4795 31.7787C65.0281 31.0782 65.6366 30.4211 66.2195 29.7444C65.8381 29.0634 65.4938 28.4512 65.1224 27.7885C64.5367 28.6305 64.0581 29.3493 63.5452 30.0442C63.1124 30.6298 62.3824 31.137 62.2524 31.7717C62.1224 32.4078 62.5738 33.1574 62.8338 34.0793V34.0779ZM82.365 33.1476C82.3307 33.2232 82.2964 33.2989 82.2636 33.3745C82.645 33.446 82.7307 34.0358 83.405 33.785C83.0078 33.5413 82.6864 33.3437 82.3664 33.1462L82.365 33.1476ZM84.2207 14.8608C84.2535 14.893 84.2878 14.9238 84.3207 14.9561C84.4892 14.7893 84.6564 14.6212 84.8249 14.4545C84.7878 14.4194 84.7507 14.383 84.7121 14.348C84.5478 14.5189 84.3835 14.6899 84.2192 14.8608H84.2207Z" fill="black"/>
<path id="Vector_2" d="M87.1562 33.4978C87.6862 33.3005 88.0862 33.2431 88.6219 33.5146C88.0862 33.8323 87.6848 33.947 87.1562 33.4978Z" fill="black"/>
<path id="Vector_3" d="M87.3516 31.6253C87.7973 31.2433 88.1958 31.1985 88.7701 31.3734C88.303 31.8198 87.9001 31.8394 87.3516 31.6253Z" fill="black"/>
<path id="Vector_4" d="M88.1717 29.6344C87.8902 30.1298 87.5045 30.0193 87.0488 30.0333C87.3274 29.4903 87.6817 29.5071 88.1717 29.6344Z" fill="black"/>
<path id="Vector_5" d="M86.5312 28.6157C86.7527 28.228 87.0684 28.0867 87.5984 28.2C87.2855 28.6478 86.9341 28.6856 86.5312 28.6157Z" fill="black"/>
<path id="Vector_6" d="M87.1445 26.458C87.3445 26.2901 87.5969 26.2238 87.9017 26.2593C87.7131 26.4692 87.4607 26.5354 87.1445 26.458Z" fill="black"/>
<path id="Vector_7" d="M85.6543 26.6784C85.9172 26.593 86.18 26.5076 86.5771 26.3789C86.4057 27.017 86.0543 26.9471 85.7429 26.9555C85.7129 26.8631 85.6843 26.7707 85.6543 26.6784Z" fill="black"/>
<path id="Vector_8" d="M88.9697 28.0312C88.7997 28.0662 88.6283 28.1026 88.4583 28.1376C88.4555 28.0466 88.454 27.9543 88.4512 27.8633C88.6183 27.8605 88.7855 27.8563 88.9512 27.8535C88.9569 27.9137 88.964 27.9725 88.9697 28.0326V28.0312Z" fill="black"/>
<path id="Vector_9" d="M83.4853 35.9498C83.1024 35.856 82.7181 35.7637 82.1367 35.6209C82.8339 35.1899 83.1853 35.4838 83.5667 35.6111C83.5396 35.7245 83.5124 35.8378 83.4853 35.9498Z" fill="black"/>
<path id="Vector_10" d="M82.4102 36.6895C82.8302 36.7944 83.1444 36.8742 83.6173 36.9917C82.813 37.3332 82.7687 37.3206 82.4102 36.6895Z" fill="black"/>
<path id="Vector_11" d="M79.2324 42.3652C79.6581 42.5737 79.9438 42.7137 80.4024 42.9376C79.8605 43.0206 79.4705 42.8298 79.2324 42.3652Z" fill="black"/>
<path id="Vector_12" d="M82.6032 38.8309C82.3246 38.7358 82.046 38.642 81.6289 38.4993C82.1832 38.0963 82.436 38.3258 82.686 38.5637C82.6589 38.6532 82.6303 38.7414 82.6032 38.8309Z" fill="black"/>
<path id="Vector_13" d="M81.6702 40.1334C81.4416 40.0256 81.2116 39.9179 80.873 39.7583C81.2521 39.6576 81.5178 39.7826 81.6702 40.1334Z" fill="black"/>
<path id="Vector_14" d="M81.2968 41.5396C81.0183 41.4137 80.8068 41.3199 80.584 41.2192C80.6668 41.0946 80.6983 41.0037 80.734 41.0023C81.0368 40.9897 81.3254 41.0121 81.2983 41.5396H81.2968Z" fill="black"/>
<path id="Vector_15" d="M71.0273 26.4713C71.1345 26.2387 71.2402 26.0047 71.3902 25.6797C71.7845 26.1799 71.503 26.369 71.2816 26.575C71.1973 26.5413 71.1116 26.5063 71.0273 26.4727V26.4713Z" fill="black"/>
<path id="Vector_16" d="M70.9056 24.9601C70.787 25.1814 70.6699 25.4042 70.4799 25.7601C70.2013 25.2067 70.3942 25.0063 70.6656 24.834C70.7456 24.876 70.8256 24.918 70.9056 24.9601Z" fill="black"/>
<path id="Vector_17" d="M70.1545 23.9038C70.0688 24.1151 69.9845 24.3265 69.8988 24.5392C69.7974 24.5042 69.6959 24.4692 69.5945 24.4356C69.4088 24.1543 69.4817 23.936 69.8059 23.7793C69.9217 23.8213 70.0374 23.8633 70.1531 23.9052L70.1545 23.9038Z" fill="black"/>
<path id="Vector_18" d="M66.8477 23.4504C66.8905 23.2165 66.9348 22.9811 67.0105 22.5762C67.4362 23.0469 67.2677 23.2851 67.1248 23.5261C67.0319 23.5009 66.9405 23.4757 66.8477 23.4518V23.4504Z" fill="black"/>
<path id="Vector_19" d="M65.9627 23.5312C65.9684 23.716 65.9769 23.9007 65.9727 24.084C65.9727 24.091 65.8127 24.1148 65.807 24.1008C65.7384 23.9343 65.6841 23.7607 65.627 23.5886C65.7384 23.569 65.8512 23.5508 65.9627 23.5312Z" fill="black"/>
<path id="Vector_20" d="M68.7824 22.913C68.7567 23.1243 68.731 23.3343 68.6938 23.6337C68.2052 23.3245 68.3781 23.102 68.541 22.8809C68.621 22.8921 68.7024 22.9018 68.7824 22.913Z" fill="black"/>
<path id="Vector_21" d="M76.0693 13.133C75.7455 12.8108 75.5851 12.4657 75.5879 12.0977C76.1251 12.2616 75.9965 12.6343 76.0693 13.133Z" fill="black"/>
<path id="Vector_22" d="M74.457 13.7843C74.1741 13.3738 73.977 13.0908 73.7812 12.8077C73.8484 12.7657 73.9155 12.7237 73.9827 12.6816C74.277 12.9058 74.707 13.0473 74.457 13.7843Z" fill="black"/>
<path id="Vector_23" d="M71.3558 16.3356C71.1144 16.2572 70.873 16.1789 70.543 16.0711C70.8477 15.9041 71.1425 15.927 71.4272 16.1397C71.403 16.204 71.3801 16.2698 71.3558 16.3342V16.3356Z" fill="black"/>
<path id="Vector_24" d="M72.834 13.5198C73.3454 13.51 73.3768 13.8206 73.4668 14.1579C72.9426 14.1705 72.8997 13.8682 72.834 13.5198Z" fill="black"/>
<path id="Vector_25" d="M71.5071 14.0879C71.6842 14.2502 71.8614 14.4111 72.1513 14.677C71.5685 14.782 71.4071 14.5917 71.3242 14.2922C71.3842 14.2236 71.4456 14.1565 71.5056 14.0879H71.5071Z" fill="black"/>
<path id="Vector_26" d="M95.0049 21.8831C94.7349 21.8257 94.4649 21.7698 94.0078 21.6732C94.5507 21.2912 94.8207 21.3891 95.0764 21.599C95.0521 21.6942 95.0292 21.788 95.0049 21.8831Z" fill="black"/>
<path id="Vector_27" d="M93.5956 23.6895C93.8541 23.7916 94.1127 23.8938 94.547 24.0659C93.9584 24.3654 93.717 24.1918 93.4941 23.9525C93.5284 23.8644 93.5627 23.7776 93.597 23.6895H93.5956Z" fill="black"/>
<path id="Vector_28" d="M94.8752 20.3756C94.4209 20.4148 94.1609 20.4371 93.8438 20.4637C94.018 20.1381 94.3618 20.1088 94.8752 20.3756Z" fill="black"/>
<path id="Vector_29" d="M94.0327 19.3807C93.8084 19.4003 93.5856 19.4199 93.2441 19.4507C93.507 19.2063 93.7699 19.183 94.0327 19.3807Z" fill="black"/>
<path id="Vector_30" d="M94.8185 23.1385C94.6214 23.0545 94.4257 22.9706 94.2285 22.8852C94.2557 22.8082 94.2842 22.7313 94.3114 22.6543C94.5199 22.7117 94.7285 22.769 94.9371 22.825L94.8185 23.1371V23.1385Z" fill="black"/>
<path id="Vector_31" d="M83.9025 11.4437C83.8083 11.6693 83.7154 11.8948 83.594 12.1863C83.4225 11.9116 83.4559 11.638 83.694 11.3652C83.764 11.3919 83.8325 11.4171 83.9025 11.4437Z" fill="black"/>
<path id="Vector_32" d="M81.7139 11.1426C81.9325 11.5531 81.8296 11.8039 81.4967 12.0813C81.2082 11.668 81.4025 11.4382 81.7139 11.1426Z" fill="black"/>
<path id="Vector_33" d="M82.8966 11.3778C82.7766 11.5866 82.6566 11.7953 82.4309 12.1904C82.2724 11.6006 82.3338 11.361 82.6709 11.2461L82.8966 11.3792V11.3778Z" fill="black"/>
<path id="Vector_34" d="M86.1116 11.8743C86.023 12.0719 85.9345 12.2694 85.7902 12.5917C85.4873 12.1265 85.6531 11.943 85.8716 11.7734C85.9516 11.8071 86.0316 11.8407 86.1116 11.8743Z" fill="black"/>
<path id="Vector_35" d="M85.1875 11.5156C85.0461 11.9037 84.9732 12.1027 84.8603 12.4109C84.5246 11.957 84.6546 11.7776 85.1875 11.5156Z" fill="black"/>
<path id="Vector_36" d="M60.3959 25.584C60.4502 25.9076 60.5044 26.2313 60.5816 26.6838C59.9273 26.3826 60.033 26.0127 60.1259 25.647C60.2159 25.626 60.3059 25.605 60.3959 25.584Z" fill="black"/>
<path id="Vector_37" d="M59.1669 28.5594C58.7498 28.3394 58.4898 28.1699 58.6769 27.7188C59.0484 27.8575 59.2255 28.0536 59.1669 28.5594Z" fill="black"/>
<path id="Vector_38" d="M63.2757 26.3301C63.3143 26.4714 63.3843 26.6128 63.38 26.7527C63.3771 26.852 63.2757 26.9486 63.0471 27.0186C63.0314 26.8031 63.0157 26.5876 63 26.3721C63.0914 26.3581 63.1829 26.3441 63.2743 26.3301H63.2757Z" fill="black"/>
<path id="Vector_39" d="M61.4903 26.7776C61.3889 26.4498 61.3246 26.2466 61.2246 25.9258C61.5227 26.1397 61.6113 26.4236 61.4903 26.7776Z" fill="black"/>
<path id="Vector_40" d="M59.302 26.5898C59.352 26.8081 59.402 27.0264 59.4749 27.3469C58.9749 27.1566 58.9092 26.9369 59.0534 26.6402C59.1363 26.6234 59.2191 26.6066 59.3006 26.5898H59.302Z" fill="black"/>
<path id="Vector_41" d="M98.084 15.7389C98.4497 15.8103 98.8154 15.883 99.2568 15.9698C98.5425 16.4358 98.3868 16.3924 98.084 15.7249C98.084 15.7221 98.084 15.7403 98.084 15.7403V15.7389Z" fill="black"/>
<path id="Vector_42" d="M99.5653 15.0148C99.0667 15.0386 98.7781 15.0526 98.3281 15.0736C98.6948 14.7751 99.1072 14.7555 99.5653 15.0148Z" fill="black"/>
<path id="Vector_43" d="M99.1657 14.044C98.8885 14.0315 98.6128 14.0189 98.1914 13.9993C98.6085 13.5081 98.8942 13.5962 99.1828 13.7502C99.1771 13.8481 99.1714 13.9461 99.1657 14.0454V14.044Z" fill="black"/>
<path id="Vector_44" d="M98.7026 12.7402C98.7541 12.883 98.8055 13.0243 98.8898 13.2622C98.6212 13.251 98.4269 13.244 98.2326 13.237C98.2098 13.174 98.1869 13.1125 98.1641 13.0495C98.3583 12.9515 98.5526 12.8536 98.7469 12.7556L98.7012 12.7402H98.7026Z" fill="black"/>
<path id="Vector_45" d="M94.7499 4.72443C94.9213 4.44141 95.0927 4.15699 95.317 3.78711C95.5941 4.51427 95.2098 4.64877 94.7427 4.72583C94.7398 4.72583 94.7499 4.72583 94.7499 4.72583V4.72443Z" fill="black"/>
<path id="Vector_46" d="M94.917 3.06648C94.8456 3.29066 94.7742 3.51623 94.6485 3.91133C94.3099 3.40835 94.4385 3.18418 94.6885 2.98242L94.917 3.06648Z" fill="black"/>
<path id="Vector_47" d="M93.8711 2.57912C93.9397 2.38461 94.0082 2.19009 94.1125 1.89062C94.5211 2.29785 94.2682 2.47417 94.1097 2.66588C94.0297 2.6379 93.9497 2.60851 93.8711 2.58052V2.57912Z" fill="black"/>
</g>
<g id="Group 16">
<g id="EFFECT COSMETICS">
<path id="Vector_48" d="M139.561 96.4656H140.048C140.093 96.6955 140.154 96.9179 140.23 97.1329C140.313 97.3479 140.418 97.5369 140.547 97.7C140.676 97.8631 140.834 97.9928 141.023 98.0892C141.212 98.1856 141.443 98.2338 141.715 98.2338C142.236 98.2338 142.664 98.0892 142.996 97.8001C143.329 97.511 143.495 97.1477 143.495 96.7103C143.495 96.4508 143.446 96.2284 143.348 96.0431C143.249 95.8503 143.121 95.6798 142.962 95.5315C142.803 95.3907 142.622 95.2609 142.418 95.1423C142.214 95.0237 142.002 94.9014 141.783 94.7753C141.556 94.6567 141.326 94.5307 141.091 94.3972C140.857 94.2564 140.645 94.0933 140.456 93.9079C140.267 93.7152 140.112 93.4965 139.991 93.2518C139.87 92.9998 139.81 92.7032 139.81 92.3622C139.81 91.9619 139.874 91.6134 140.003 91.3169C140.139 91.0203 140.324 90.772 140.558 90.5718C140.785 90.3791 141.057 90.2345 141.375 90.1381C141.692 90.0343 142.032 89.9824 142.395 89.9824C142.531 89.9824 142.66 89.9898 142.781 90.0047C142.902 90.0195 143.019 90.0343 143.132 90.0491C143.246 90.064 143.359 90.0825 143.472 90.1047C143.586 90.127 143.707 90.1455 143.835 90.1603L144.051 91.7839H143.563C143.495 91.3465 143.355 91.0203 143.144 90.8053C142.939 90.5903 142.633 90.4828 142.225 90.4828C141.704 90.4828 141.31 90.6237 141.046 90.9054C140.789 91.1871 140.66 91.5319 140.66 91.9396C140.66 92.1991 140.717 92.4326 140.83 92.6402C140.944 92.8404 141.091 93.022 141.273 93.1851C141.454 93.3556 141.658 93.5076 141.885 93.641C142.119 93.7745 142.357 93.8968 142.599 94.008C142.826 94.1266 143.053 94.2527 143.28 94.3861C143.506 94.5121 143.707 94.6604 143.881 94.8309C144.062 95.0014 144.206 95.2016 144.311 95.4314C144.425 95.6613 144.481 95.9356 144.481 96.2543C144.481 96.6621 144.398 97.0217 144.232 97.333C144.066 97.637 143.85 97.8891 143.586 98.0892C143.321 98.2968 143.019 98.4525 142.679 98.5563C142.338 98.6601 141.995 98.712 141.647 98.712C141.299 98.712 140.982 98.6823 140.694 98.623C140.415 98.5637 140.127 98.4673 139.833 98.3339L139.561 96.4656Z" fill="black"/>
<path id="Vector_49" d="M137.353 92.4289H136.934C136.82 91.7469 136.567 91.2539 136.174 90.9499C135.781 90.6385 135.24 90.4828 134.553 90.4828C134.061 90.4828 133.608 90.5755 133.192 90.7609C132.776 90.9388 132.413 91.1908 132.103 91.517C131.801 91.8432 131.563 92.2362 131.389 92.6958C131.215 93.148 131.128 93.6485 131.128 94.1971C131.128 94.805 131.223 95.3573 131.412 95.854C131.601 96.3507 131.858 96.777 132.183 97.1329C132.508 97.4813 132.89 97.7519 133.328 97.9447C133.774 98.1374 134.246 98.2338 134.745 98.2338C135.358 98.2338 135.845 98.0447 136.208 97.6666C136.571 97.2811 136.809 96.7955 136.922 96.2099H137.387L137.07 98.1115C136.941 98.193 136.775 98.2709 136.571 98.345C136.367 98.4191 136.148 98.4821 135.913 98.534C135.671 98.5933 135.429 98.6378 135.188 98.6675C134.946 98.6971 134.726 98.712 134.53 98.712C133.857 98.712 133.245 98.6082 132.693 98.4006C132.141 98.1856 131.665 97.8816 131.264 97.4887C130.864 97.0958 130.554 96.625 130.335 96.0764C130.115 95.5278 130.006 94.9125 130.006 94.2304C130.006 93.6151 130.131 93.048 130.38 92.529C130.637 92.01 130.973 91.5615 131.389 91.1834C131.812 90.8053 132.292 90.5125 132.829 90.3049C133.366 90.0899 133.921 89.9824 134.496 89.9824C134.972 89.9824 135.445 90.0491 135.913 90.1826C136.389 90.3086 136.828 90.4495 137.229 90.6052L137.353 92.4289Z" fill="black"/>
<path id="Vector_50" d="M125.714 91.5947C125.714 91.3649 125.698 91.1832 125.668 91.0498C125.645 90.9163 125.593 90.8163 125.509 90.7495C125.434 90.6828 125.324 90.642 125.181 90.6272C125.037 90.605 124.852 90.5901 124.625 90.5827V90.1602C124.761 90.175 124.976 90.1824 125.271 90.1824C125.566 90.1824 125.876 90.1824 126.201 90.1824C126.534 90.1824 126.847 90.1824 127.142 90.1824C127.445 90.175 127.671 90.1676 127.822 90.1602V90.5827C127.588 90.5901 127.399 90.605 127.256 90.6272C127.112 90.642 127.002 90.6828 126.927 90.7495C126.851 90.8163 126.802 90.9163 126.779 91.0498C126.757 91.1832 126.745 91.3649 126.745 91.5947V96.9992C126.745 97.2365 126.757 97.4292 126.779 97.5775C126.81 97.7183 126.862 97.8296 126.938 97.9111C127.021 97.9927 127.131 98.0483 127.267 98.0779C127.411 98.1076 127.596 98.1224 127.822 98.1224V98.5338C127.671 98.5338 127.448 98.5338 127.153 98.5338C126.859 98.5264 126.549 98.5227 126.224 98.5227C125.899 98.5227 125.585 98.5227 125.283 98.5227C124.988 98.5227 124.769 98.5264 124.625 98.5338V98.1224C124.844 98.1224 125.026 98.1076 125.169 98.0779C125.313 98.0483 125.422 97.9927 125.498 97.9111C125.581 97.8296 125.638 97.7183 125.668 97.5775C125.698 97.4292 125.714 97.2365 125.714 96.9992V91.5947Z" fill="black"/>
<path id="Vector_51" d="M122.792 91.8171H122.304C122.296 91.6095 122.281 91.4353 122.259 91.2944C122.236 91.1536 122.187 91.0424 122.111 90.9608C122.043 90.8719 121.941 90.8126 121.805 90.7829C121.669 90.7458 121.484 90.7273 121.249 90.7273H119.707V96.9881C119.707 97.2328 119.719 97.4292 119.741 97.5775C119.772 97.7183 119.828 97.8296 119.912 97.9111C119.987 97.9927 120.097 98.0483 120.24 98.0779C120.384 98.1076 120.569 98.1224 120.796 98.1224V98.5227C120.607 98.5227 120.369 98.5227 120.082 98.5227C119.794 98.5153 119.496 98.5116 119.186 98.5116C118.883 98.5116 118.589 98.5153 118.301 98.5227C118.014 98.5227 117.78 98.5264 117.598 98.5338V98.1224C117.818 98.1224 117.995 98.1076 118.131 98.0779C118.275 98.0483 118.388 97.9927 118.472 97.9111C118.547 97.8296 118.6 97.7183 118.63 97.5775C118.66 97.4292 118.676 97.2328 118.676 96.9881V90.7273H117.372C117.122 90.7273 116.918 90.7421 116.759 90.7718C116.601 90.8014 116.472 90.857 116.374 90.9386C116.276 91.0127 116.196 91.1239 116.136 91.2722C116.075 91.4131 116.019 91.5947 115.966 91.8171H115.467L115.626 90.1602C116.102 90.1824 116.657 90.1972 117.292 90.2046C117.935 90.2121 118.589 90.2158 119.254 90.2158C119.919 90.2158 120.569 90.2121 121.204 90.2046C121.847 90.1972 122.41 90.1824 122.894 90.1602L122.792 91.8171Z" fill="black"/>
<path id="Vector_52" d="M109.451 93.907H111.073C111.345 93.907 111.534 93.844 111.64 93.7179C111.745 93.5845 111.798 93.3065 111.798 92.8839H112.263V95.6307H111.798C111.798 95.386 111.787 95.1895 111.764 95.0413C111.749 94.893 111.715 94.7781 111.662 94.6965C111.609 94.615 111.534 94.5631 111.435 94.5409C111.337 94.5112 111.212 94.4964 111.061 94.4964H109.451V97.0318C109.451 97.2542 109.466 97.4322 109.497 97.5656C109.527 97.6991 109.587 97.8028 109.678 97.877C109.776 97.9511 109.909 97.9993 110.075 98.0215C110.249 98.0364 110.475 98.0438 110.755 98.0438H111.594C111.881 98.0438 112.12 98.0253 112.309 97.9882C112.505 97.9437 112.668 97.8659 112.796 97.7547C112.932 97.6509 113.046 97.5063 113.136 97.321C113.234 97.1282 113.329 96.8836 113.42 96.587H113.919C113.82 96.891 113.718 97.2172 113.612 97.5656C113.514 97.9066 113.431 98.2254 113.363 98.522C112.879 98.5146 112.377 98.5108 111.855 98.5108C111.333 98.5034 110.808 98.4997 110.279 98.4997C109.757 98.4997 109.243 98.5034 108.737 98.5108C108.23 98.5108 107.75 98.5146 107.297 98.522V98.1216C107.531 98.1216 107.72 98.1068 107.864 98.0772C108.015 98.0475 108.132 97.9919 108.215 97.9103C108.291 97.8362 108.344 97.7287 108.374 97.5879C108.404 97.4396 108.419 97.2542 108.419 97.0318V91.5828C108.419 91.3604 108.404 91.1862 108.374 91.0602C108.344 90.9267 108.291 90.8266 108.215 90.7599C108.132 90.6932 108.015 90.6487 107.864 90.6265C107.72 90.6042 107.531 90.5931 107.297 90.5931V90.1816C107.735 90.1965 108.2 90.2076 108.692 90.215C109.183 90.215 109.678 90.215 110.177 90.215C110.676 90.215 111.167 90.215 111.651 90.215C112.135 90.2076 112.588 90.1965 113.012 90.1816V92.0721H112.558C112.52 91.7607 112.475 91.5124 112.422 91.327C112.377 91.1417 112.297 90.9971 112.184 90.8933C112.078 90.797 111.931 90.734 111.742 90.7043C111.553 90.6672 111.307 90.6487 111.005 90.6487H109.451V93.907Z" fill="black"/>
<path id="Vector_53" d="M99.7822 98.6H99.3853L96.2899 92.0278L96.1992 97.0097C96.1992 97.4175 96.2559 97.7029 96.3693 97.866C96.4827 98.0291 96.7321 98.1181 97.1176 98.1329V98.5221C96.9362 98.5221 96.7094 98.5221 96.4373 98.5221C96.1727 98.5147 95.8968 98.511 95.6096 98.511C95.3223 98.511 95.0427 98.5147 94.7705 98.5221C94.506 98.5221 94.283 98.5258 94.1016 98.5332V98.1218C94.3661 98.1144 94.5853 98.0996 94.7592 98.0773C94.9331 98.0477 95.0729 97.9921 95.1787 97.9105C95.2921 97.8364 95.3715 97.7252 95.4168 97.5769C95.4697 97.4286 95.5038 97.2284 95.5189 96.9764L95.6436 91.5385C95.6436 91.1826 95.5642 90.9343 95.4055 90.7934C95.2468 90.6526 94.9746 90.5821 94.5891 90.5821V90.1596C94.7101 90.1744 94.8575 90.1855 95.0313 90.1929C95.2127 90.1929 95.3942 90.1929 95.5756 90.1929C95.757 90.1929 95.9271 90.1929 96.0858 90.1929C96.2445 90.1855 96.3655 90.1744 96.4486 90.1596L99.7595 97.1766L102.98 90.1707C103.07 90.1855 103.206 90.1929 103.388 90.1929C103.577 90.1929 103.773 90.1929 103.977 90.1929C104.182 90.1929 104.374 90.1892 104.556 90.1818C104.737 90.1744 104.869 90.1633 104.953 90.1484V90.5821C104.529 90.5821 104.246 90.6563 104.102 90.8045C103.966 90.9528 103.898 91.1938 103.898 91.5274L104.023 96.9764C104.03 97.2136 104.049 97.4064 104.079 97.5546C104.117 97.7029 104.185 97.8178 104.284 97.8994C104.374 97.9883 104.503 98.0477 104.669 98.0773C104.843 98.107 105.074 98.1218 105.361 98.1218V98.5221C105.179 98.5221 104.922 98.5221 104.59 98.5221C104.265 98.5221 103.921 98.5221 103.558 98.5221C103.195 98.5221 102.847 98.5221 102.515 98.5221C102.182 98.5221 101.933 98.5221 101.766 98.5221V98.1218C102.023 98.1218 102.231 98.107 102.39 98.0773C102.556 98.0477 102.685 97.9921 102.776 97.9105C102.859 97.829 102.915 97.714 102.946 97.5658C102.983 97.4175 103.002 97.221 103.002 96.9764L102.934 91.8165L99.7822 98.6Z" fill="black"/>
<path id="Vector_54" d="M87.1328 96.4656H87.6204C87.6657 96.6955 87.7262 96.9179 87.8018 97.1329C87.8849 97.3479 87.9908 97.5369 88.1193 97.7C88.2478 97.8631 88.4065 97.9928 88.5955 98.0892C88.7845 98.1856 89.015 98.2338 89.2871 98.2338C89.8087 98.2338 90.2358 98.0892 90.5684 97.8001C90.901 97.511 91.0673 97.1477 91.0673 96.7103C91.0673 96.4508 91.0182 96.2284 90.9199 96.0431C90.8216 95.8503 90.6931 95.6798 90.5344 95.5315C90.3756 95.3907 90.1942 95.2609 89.9901 95.1423C89.786 95.0237 89.5744 94.9014 89.3552 94.7753C89.1284 94.6567 88.8978 94.5307 88.6635 94.3972C88.4292 94.2564 88.2175 94.0933 88.0286 93.9079C87.8396 93.7152 87.6846 93.4965 87.5637 93.2518C87.4427 92.9998 87.3823 92.7032 87.3823 92.3622C87.3823 91.9619 87.4465 91.6134 87.575 91.3169C87.7111 91.0203 87.8963 90.772 88.1306 90.5718C88.3574 90.3791 88.6295 90.2345 88.947 90.1381C89.2645 90.0343 89.6046 89.9824 89.9675 89.9824C90.1035 89.9824 90.232 89.9898 90.353 90.0047C90.4739 90.0195 90.5911 90.0343 90.7045 90.0491C90.8178 90.064 90.9312 90.0825 91.0446 90.1047C91.158 90.127 91.2789 90.1455 91.4074 90.1603L91.6229 91.7839H91.1353C91.0673 91.3465 90.9274 91.0203 90.7158 90.8053C90.5117 90.5903 90.2056 90.4828 89.7974 90.4828C89.2758 90.4828 88.8827 90.6237 88.6182 90.9054C88.3612 91.1871 88.2327 91.5319 88.2327 91.9396C88.2327 92.1991 88.2893 92.4326 88.4027 92.6402C88.5161 92.8404 88.6635 93.022 88.8449 93.1851C89.0264 93.3556 89.2304 93.5076 89.4572 93.641C89.6915 93.7745 89.9297 93.8968 90.1715 94.008C90.3983 94.1266 90.6251 94.2527 90.8519 94.3861C91.0786 94.5121 91.2789 94.6604 91.4528 94.8309C91.6342 95.0014 91.7778 95.2016 91.8837 95.4314C91.9971 95.6613 92.0537 95.9356 92.0537 96.2543C92.0537 96.6621 91.9706 97.0217 91.8043 97.333C91.638 97.637 91.4226 97.8891 91.158 98.0892C90.8934 98.2968 90.5911 98.4525 90.2509 98.5563C89.9108 98.6601 89.5668 98.712 89.2191 98.712C88.8714 98.712 88.5539 98.6823 88.2667 98.623C87.987 98.5637 87.6997 98.4673 87.4049 98.3339L87.1328 96.4656Z" fill="black"/>
<path id="Vector_55" d="M84.6875 94.3083C84.6875 94.8569 84.5854 95.3981 84.3813 95.9319C84.1772 96.4582 83.89 96.9253 83.5196 97.333C83.1492 97.7482 82.7032 98.0818 82.1816 98.3339C81.6676 98.5859 81.0931 98.712 80.4582 98.712C79.8761 98.712 79.3281 98.5971 78.8141 98.3672C78.3001 98.13 77.8541 97.8149 77.4761 97.422C77.0906 97.0291 76.7883 96.5731 76.5691 96.0542C76.3498 95.5278 76.2402 94.9755 76.2402 94.3972C76.2402 93.8486 76.3423 93.3111 76.5464 92.7848C76.7505 92.2584 77.0377 91.7876 77.4081 91.3725C77.7785 90.9573 78.2245 90.6237 78.7461 90.3716C79.2752 90.1122 79.8572 89.9824 80.4922 89.9824C81.0667 89.9824 81.6072 90.101 82.1136 90.3383C82.6276 90.5755 83.0736 90.8906 83.4516 91.2835C83.8371 91.6838 84.1394 92.1472 84.3586 92.6736C84.5779 93.1925 84.6875 93.7374 84.6875 94.3083ZM83.4969 94.6419C83.4969 94.2045 83.4327 93.7448 83.3042 93.263C83.1757 92.7737 82.9791 92.3214 82.7146 91.9063C82.4575 91.4985 82.1287 91.1612 81.7281 90.8943C81.335 90.62 80.8739 90.4828 80.3448 90.4828C79.9139 90.4828 79.5171 90.5718 79.1542 90.7497C78.799 90.9277 78.4928 91.1723 78.2358 91.4837C77.9713 91.8025 77.7672 92.1806 77.6235 92.618C77.4875 93.0554 77.4194 93.5335 77.4194 94.0525C77.4194 94.4973 77.4837 94.9681 77.6122 95.4648C77.7407 95.9541 77.9372 96.4026 78.2018 96.8104C78.4664 97.2255 78.7952 97.5666 79.1883 97.8335C79.5889 98.1003 80.0575 98.2338 80.5942 98.2338C81.0478 98.2338 81.4522 98.1485 81.8075 97.978C82.1703 97.8001 82.4764 97.5517 82.7259 97.2329C82.9753 96.9142 83.1643 96.5361 83.2928 96.0987C83.4289 95.6538 83.4969 95.1683 83.4969 94.6419Z" fill="black"/>
<path id="Vector_56" d="M73.8415 92.4289H73.422C73.3086 91.7469 73.0554 91.2539 72.6623 90.9499C72.2692 90.6385 71.7288 90.4828 71.0409 90.4828C70.5496 90.4828 70.096 90.5755 69.6803 90.7609C69.2645 90.9388 68.9017 91.1908 68.5918 91.517C68.2894 91.8432 68.0513 92.2362 67.8774 92.6958C67.7036 93.148 67.6167 93.6485 67.6167 94.1971C67.6167 94.805 67.7111 95.3573 67.9001 95.854C68.0891 96.3507 68.3461 96.777 68.6711 97.1329C68.9962 97.4813 69.3779 97.7519 69.8163 97.9447C70.2623 98.1374 70.7348 98.2338 71.2337 98.2338C71.8459 98.2338 72.3335 98.0447 72.6963 97.6666C73.0592 97.2811 73.2973 96.7955 73.4107 96.2099H73.8755L73.5581 98.1115C73.4296 98.193 73.2633 98.2709 73.0592 98.345C72.8551 98.4191 72.6359 98.4821 72.4015 98.534C72.1596 98.5933 71.9178 98.6378 71.6759 98.6675C71.434 98.6971 71.2148 98.712 71.0182 98.712C70.3455 98.712 69.7332 98.6082 69.1814 98.4006C68.6296 98.1856 68.1533 97.8816 67.7527 97.4887C67.3521 97.0958 67.0422 96.625 66.823 96.0764C66.6037 95.5278 66.4941 94.9125 66.4941 94.2304C66.4941 93.6151 66.6189 93.048 66.8683 92.529C67.1253 92.01 67.4617 91.5615 67.8774 91.1834C68.3008 90.8053 68.7807 90.5125 69.3174 90.3049C69.8541 90.0899 70.4097 89.9824 70.9842 89.9824C71.4604 89.9824 71.9329 90.0491 72.4015 90.1826C72.8777 90.3086 73.3162 90.4495 73.7168 90.6052L73.8415 92.4289Z" fill="black"/>
<path id="Vector_57" d="M59.9712 91.8171H59.4836C59.4761 91.6095 59.461 91.4353 59.4383 91.2944C59.4156 91.1536 59.3665 91.0424 59.2909 90.9608C59.2228 90.8719 59.1208 90.8126 58.9847 90.7829C58.8487 90.7458 58.6635 90.7273 58.4291 90.7273H56.8871V96.9881C56.8871 97.2328 56.8984 97.4292 56.9211 97.5775C56.9514 97.7183 57.008 97.8296 57.0912 97.9111C57.1668 97.9927 57.2764 98.0483 57.42 98.0779C57.5636 98.1076 57.7488 98.1224 57.9756 98.1224V98.5227C57.7866 98.5227 57.5485 98.5227 57.2613 98.5227C56.974 98.5153 56.6755 98.5116 56.3655 98.5116C56.0632 98.5116 55.7684 98.5153 55.4811 98.5227C55.1939 98.5227 54.9596 98.5264 54.7781 98.5338V98.1224C54.9973 98.1224 55.175 98.1076 55.311 98.0779C55.4547 98.0483 55.5681 97.9927 55.6512 97.9111C55.7268 97.8296 55.7797 97.7183 55.8099 97.5775C55.8402 97.4292 55.8553 97.2328 55.8553 96.9881V90.7273H54.5514C54.3019 90.7273 54.0978 90.7421 53.9391 90.7718C53.7803 90.8014 53.6518 90.857 53.5536 90.9386C53.4553 91.0127 53.3759 91.1239 53.3155 91.2722C53.255 91.4131 53.1983 91.5947 53.1454 91.8171H52.6465L52.8052 90.1602C53.2814 90.1824 53.837 90.1972 54.472 90.2046C55.1145 90.2121 55.7684 90.2158 56.4336 90.2158C57.0988 90.2158 57.7488 90.2121 58.3838 90.2046C59.0263 90.1972 59.5895 90.1824 60.0732 90.1602L59.9712 91.8171Z" fill="black"/>
<path id="Vector_58" d="M50.779 92.4289H50.3595C50.2461 91.7469 49.9929 91.2539 49.5998 90.9499C49.2067 90.6385 48.6663 90.4828 47.9784 90.4828C47.4871 90.4828 47.0335 90.5755 46.6178 90.7609C46.202 90.9388 45.8392 91.1908 45.5293 91.517C45.2269 91.8432 44.9888 92.2362 44.8149 92.6958C44.6411 93.148 44.5542 93.6485 44.5542 94.1971C44.5542 94.805 44.6486 95.3573 44.8376 95.854C45.0266 96.3507 45.2836 96.777 45.6086 97.1329C45.9337 97.4813 46.3154 97.7519 46.7538 97.9447C47.1998 98.1374 47.6723 98.2338 48.1712 98.2338C48.7834 98.2338 49.271 98.0447 49.6338 97.6666C49.9967 97.2811 50.2348 96.7955 50.3482 96.2099H50.813L50.4956 98.1115C50.3671 98.193 50.2008 98.2709 49.9967 98.345C49.7926 98.4191 49.5734 98.4821 49.339 98.534C49.0971 98.5933 48.8553 98.6378 48.6134 98.6675C48.3715 98.6971 48.1523 98.712 47.9557 98.712C47.283 98.712 46.6707 98.6082 46.1189 98.4006C45.5671 98.1856 45.0908 97.8816 44.6902 97.4887C44.2896 97.0958 43.9797 96.625 43.7605 96.0764C43.5412 95.5278 43.4316 94.9125 43.4316 94.2304C43.4316 93.6151 43.5564 93.048 43.8058 92.529C44.0628 92.01 44.3992 91.5615 44.8149 91.1834C45.2383 90.8053 45.7182 90.5125 46.2549 90.3049C46.7916 90.0899 47.3472 89.9824 47.9217 89.9824C48.3979 89.9824 48.8704 90.0491 49.339 90.1826C49.8152 90.3086 50.2537 90.4495 50.6543 90.6052L50.779 92.4289Z" fill="black"/>
<path id="Vector_59" d="M36.9063 93.907H38.5277C38.7998 93.907 38.9888 93.844 39.0946 93.7179C39.2004 93.5845 39.2534 93.3065 39.2534 92.8839H39.7182V95.6307H39.2534C39.2534 95.386 39.242 95.1895 39.2193 95.0413C39.2042 94.893 39.1702 94.7781 39.1173 94.6965C39.0644 94.615 38.9888 94.5631 38.8905 94.5409C38.7923 94.5112 38.6675 94.4964 38.5164 94.4964H36.9063V97.0318C36.9063 97.2542 36.9214 97.4322 36.9516 97.5656C36.9819 97.6991 37.0423 97.8028 37.1331 97.877C37.2313 97.9511 37.3636 97.9993 37.5299 98.0215C37.7038 98.0364 37.9305 98.0438 38.2102 98.0438H39.0493C39.3365 98.0438 39.5746 98.0253 39.7636 97.9882C39.9601 97.9437 40.1226 97.8659 40.2512 97.7547C40.3872 97.6509 40.5006 97.5063 40.5913 97.321C40.6896 97.1282 40.7841 96.8836 40.8748 96.587H41.3737C41.2754 96.891 41.1734 97.2172 41.0675 97.5656C40.9693 97.9066 40.8861 98.2254 40.8181 98.522C40.3343 98.5146 39.8316 98.5108 39.3101 98.5108C38.7885 98.5034 38.2631 98.4997 37.734 98.4997C37.2124 98.4997 36.6984 98.5034 36.1919 98.5108C35.6855 98.5108 35.2055 98.5146 34.752 98.522V98.1216C34.9863 98.1216 35.1753 98.1068 35.3189 98.0772C35.4701 98.0475 35.5872 97.9919 35.6704 97.9103C35.746 97.8362 35.7989 97.7287 35.8291 97.5879C35.8594 97.4396 35.8745 97.2542 35.8745 97.0318V91.5828C35.8745 91.3604 35.8594 91.1862 35.8291 91.0602C35.7989 90.9267 35.746 90.8266 35.6704 90.7599C35.5872 90.6932 35.4701 90.6487 35.3189 90.6265C35.1753 90.6042 34.9863 90.5931 34.752 90.5931V90.1816C35.1904 90.1965 35.6553 90.2076 36.1466 90.215C36.6379 90.215 37.1331 90.215 37.6319 90.215C38.1308 90.215 38.6222 90.215 39.106 90.215C39.5897 90.2076 40.0433 90.1965 40.4666 90.1816V92.0721H40.013C39.9752 91.7607 39.9299 91.5124 39.877 91.327C39.8316 91.1417 39.7523 90.9971 39.6389 90.8933C39.533 90.797 39.3856 90.734 39.1967 90.7043C39.0077 90.6672 38.762 90.6487 38.4597 90.6487H36.9063V93.907Z" fill="black"/>
<path id="Vector_60" d="M29.1875 97.0109C29.1875 97.2704 29.1951 97.4743 29.2102 97.6226C29.2329 97.7634 29.282 97.8709 29.3576 97.9451C29.4332 98.0192 29.5428 98.0674 29.6864 98.0896C29.83 98.1119 30.0266 98.123 30.276 98.123V98.5344C30.1173 98.5344 29.8867 98.5344 29.5844 98.5344C29.282 98.527 28.9683 98.5233 28.6433 98.5233C28.3107 98.5233 27.9932 98.527 27.6908 98.5344C27.396 98.5344 27.1768 98.5344 27.0332 98.5344V98.123C27.2902 98.123 27.4905 98.1119 27.6341 98.0896C27.7853 98.0674 27.8987 98.0155 27.9743 97.9339C28.0499 97.8598 28.099 97.7486 28.1217 97.6003C28.1444 97.4521 28.1557 97.2556 28.1557 97.0109V91.5842C28.1557 91.3618 28.1406 91.1875 28.1104 91.0615C28.0877 90.9355 28.0386 90.8391 27.963 90.7724C27.8798 90.7057 27.7627 90.6612 27.6115 90.6389C27.4678 90.6167 27.2751 90.6019 27.0332 90.5945V90.1719C27.4716 90.1867 27.9289 90.1978 28.4052 90.2052C28.8889 90.2052 29.3765 90.2052 29.8678 90.2052C30.3592 90.2052 30.8467 90.2052 31.3305 90.2052C31.8143 90.1978 32.283 90.1867 32.7365 90.1719L32.8045 91.9845L32.317 91.9734C32.2716 91.7287 32.2225 91.5249 32.1696 91.3618C32.1242 91.1912 32.0486 91.0541 31.9428 90.9503C31.837 90.8465 31.6896 90.7724 31.5006 90.7279C31.3192 90.676 31.0735 90.6501 30.7636 90.6501H29.1875V93.9083H30.7636C31.0659 93.9083 31.2738 93.8527 31.3872 93.7415C31.5006 93.6303 31.5686 93.356 31.5913 92.9186H32.1015C32.0864 93.0669 32.0751 93.2596 32.0675 93.4969C32.0675 93.7267 32.0675 93.9677 32.0675 94.2197C32.0675 94.4792 32.0675 94.7313 32.0675 94.9759C32.0751 95.2206 32.0864 95.4207 32.1015 95.5764H31.6253C31.6026 95.1538 31.5346 94.8684 31.4212 94.7201C31.3154 94.5719 31.1075 94.4977 30.7976 94.4977H29.1875V97.0109Z" fill="black"/>
<path id="Vector_61" d="M21.4707 97.0109C21.4707 97.2704 21.4783 97.4743 21.4934 97.6226C21.5161 97.7634 21.5652 97.8709 21.6408 97.9451C21.7164 98.0192 21.826 98.0674 21.9696 98.0896C22.1133 98.1119 22.3098 98.123 22.5592 98.123V98.5344C22.4005 98.5344 22.1699 98.5344 21.8676 98.5344C21.5652 98.527 21.2515 98.5233 20.9265 98.5233C20.5939 98.5233 20.2764 98.527 19.974 98.5344C19.6792 98.5344 19.46 98.5344 19.3164 98.5344V98.123C19.5734 98.123 19.7737 98.1119 19.9173 98.0896C20.0685 98.0674 20.1819 98.0155 20.2575 97.9339C20.3331 97.8598 20.3822 97.7486 20.4049 97.6003C20.4276 97.4521 20.4389 97.2556 20.4389 97.0109V91.5842C20.4389 91.3618 20.4238 91.1875 20.3936 91.0615C20.3709 90.9355 20.3218 90.8391 20.2462 90.7724C20.163 90.7057 20.0459 90.6612 19.8947 90.6389C19.7511 90.6167 19.5583 90.6019 19.3164 90.5945V90.1719C19.7548 90.1867 20.2122 90.1978 20.6884 90.2052C21.1722 90.2052 21.6597 90.2052 22.151 90.2052C22.6424 90.2052 23.1299 90.2052 23.6137 90.2052C24.0975 90.1978 24.5662 90.1867 25.0197 90.1719L25.0877 91.9845L24.6002 91.9734C24.5548 91.7287 24.5057 91.5249 24.4528 91.3618C24.4074 91.1912 24.3318 91.0541 24.226 90.9503C24.1202 90.8465 23.9728 90.7724 23.7838 90.7279C23.6024 90.676 23.3567 90.6501 23.0468 90.6501H21.4707V93.9083H23.0468C23.3492 93.9083 23.557 93.8527 23.6704 93.7415C23.7838 93.6303 23.8518 93.356 23.8745 92.9186H24.3847C24.3696 93.0669 24.3583 93.2596 24.3507 93.4969C24.3507 93.7267 24.3507 93.9677 24.3507 94.2197C24.3507 94.4792 24.3507 94.7313 24.3507 94.9759C24.3583 95.2206 24.3696 95.4207 24.3847 95.5764H23.9085C23.8858 95.1538 23.8178 94.8684 23.7044 94.7201C23.5986 94.5719 23.3907 94.4977 23.0808 94.4977H21.4707V97.0109Z" fill="black"/>
<path id="Vector_62" d="M13.084 93.907H14.7054C14.9776 93.907 15.1665 93.844 15.2724 93.7179C15.3782 93.5845 15.4311 93.3065 15.4311 92.8839H15.896V95.6307H15.4311C15.4311 95.386 15.4198 95.1895 15.3971 95.0413C15.382 94.893 15.3479 94.7781 15.295 94.6965C15.2421 94.615 15.1665 94.5631 15.0683 94.5409C14.97 94.5112 14.8453 94.4964 14.6941 94.4964H13.084V97.0318C13.084 97.2542 13.0991 97.4322 13.1294 97.5656C13.1596 97.6991 13.2201 97.8028 13.3108 97.877C13.4091 97.9511 13.5413 97.9993 13.7076 98.0215C13.8815 98.0364 14.1083 98.0438 14.3879 98.0438H15.227C15.5142 98.0438 15.7524 98.0253 15.9413 97.9882C16.1379 97.9437 16.3004 97.8659 16.4289 97.7547C16.565 97.6509 16.6783 97.5063 16.769 97.321C16.8673 97.1282 16.9618 96.8836 17.0525 96.587H17.5514C17.4531 96.891 17.3511 97.2172 17.2453 97.5656C17.147 97.9066 17.0638 98.2254 16.9958 98.522C16.512 98.5146 16.0094 98.5108 15.4878 98.5108C14.9662 98.5034 14.4409 98.4997 13.9117 98.4997C13.3902 98.4997 12.8761 98.5034 12.3697 98.5108C11.8632 98.5108 11.3832 98.5146 10.9297 98.522V98.1216C11.164 98.1216 11.353 98.1068 11.4966 98.0772C11.6478 98.0475 11.765 97.9919 11.8481 97.9103C11.9237 97.8362 11.9766 97.7287 12.0069 97.5879C12.0371 97.4396 12.0522 97.2542 12.0522 97.0318V91.5828C12.0522 91.3604 12.0371 91.1862 12.0069 91.0602C11.9766 90.9267 11.9237 90.8266 11.8481 90.7599C11.765 90.6932 11.6478 90.6487 11.4966 90.6265C11.353 90.6042 11.164 90.5931 10.9297 90.5931V90.1816C11.3681 90.1965 11.833 90.2076 12.3243 90.215C12.8157 90.215 13.3108 90.215 13.8097 90.215C14.3086 90.215 14.7999 90.215 15.2837 90.215C15.7675 90.2076 16.221 90.1965 16.6443 90.1816V92.0721H16.1908C16.153 91.7607 16.1076 91.5124 16.0547 91.327C16.0094 91.1417 15.93 90.9971 15.8166 90.8933C15.7108 90.797 15.5634 90.734 15.3744 90.7043C15.1854 90.6672 14.9398 90.6487 14.6374 90.6487H13.084V93.907Z" fill="black"/>
</g>
<g id="Group_2">
<path id="Vector_63" d="M19.8384 60.4976L19.8331 60.7564H19.345C18.461 60.7564 17.7432 61.4448 17.7169 62.304V75.6815C17.7169 77.3508 17.957 78.9839 17.957 78.9839H17.7169L3.31696 63.9215V76.8151C3.34335 77.6743 4.06374 78.3653 4.94509 78.3653H5.43326V78.6241H0V78.3653H0.490811C1.38008 78.3653 2.10311 77.6666 2.12158 76.797V63.3444C2.12158 61.5768 1.87882 60.1094 1.87882 60.1094H2.14006L16.5188 75.1665V62.3247C16.503 61.4551 15.78 60.7564 14.8881 60.7564H14.3999L14.3946 60.4976H19.8358H19.8384Z" fill="black"/>
<path id="Vector_64" d="M42.4485 76.7344C42.9815 77.886 43.9578 78.3648 44.768 78.3648H44.9896V78.6236H39.0444V78.3674H39.2766C39.9574 78.3674 40.6646 77.7774 40.2794 76.7421L38.5906 72.3321H31.479L29.711 76.7577C29.3389 77.7851 30.0409 78.3674 30.719 78.3674H30.9512V78.6236H25.6367V78.3648H25.8742C26.6764 78.3648 27.6528 77.8886 28.1858 76.737L34.1732 62.803C34.1732 62.803 35.1522 60.7067 35.1522 60.1348H35.3897L42.4485 76.7344ZM38.2924 71.5557L35.11 63.2456L31.7877 71.5557H38.2897H38.2924Z" fill="black"/>
<path id="Vector_65" d="M60.755 60.471C61.895 60.4658 63.4413 60.2045 63.9347 60V63.2557H63.6682V62.7899C63.6682 61.9591 63.0006 61.2837 62.1641 61.2474H57.161V76.7575C57.19 77.6504 57.9341 78.3647 58.8524 78.3647H59.1876L59.1928 78.6235H53.4139L53.4192 78.3647H53.7543C54.6647 78.3647 55.4035 77.6607 55.4431 76.7782V61.2474H50.4347C49.5982 61.2837 48.9306 61.9591 48.9306 62.7899V63.2506H48.6641V60C49.1575 60.2045 50.7012 60.4658 51.8438 60.471H60.7603H60.755Z" fill="black"/>
<path id="Vector_66" d="M89.1338 60.498V60.7568H88.7037C87.9622 60.7568 87.3553 61.2667 87.3104 61.981V72.2218C87.3104 76.2824 84.4632 78.9895 80.1936 78.9895C75.924 78.9895 72.871 76.3005 72.871 72.2684V62.0431C72.8578 61.2978 72.2377 60.762 71.475 60.762H71.0449V60.5032H76.4069V60.762H75.9768C75.2274 60.762 74.6178 61.2796 74.5862 62.0043V71.888C74.5862 75.6613 76.8292 78.1743 80.191 78.1743C83.5528 78.1743 86.0702 75.7933 86.0755 72.2218V62.0069C86.0438 61.2796 85.4316 60.7594 84.6822 60.7594H84.2521V60.5006H89.1338V60.498Z" fill="black"/>
<path id="Vector_67" d="M104.093 60.498C107.292 60.498 109.252 62.3485 109.252 65.3635C109.252 67.8713 107.307 70.3015 104.766 70.3015C105.334 70.5577 106.144 71.4144 106.656 72.1235C106.656 72.1235 108.933 75.3119 109.954 76.4067C111.015 77.5454 111.994 78.3529 113.546 78.3658V78.6246H112.097C109.64 78.6246 108.321 77.3254 107.49 76.3549C107.189 76.0029 104.215 71.7586 104.012 71.5075C103.32 70.6561 102.552 69.7606 101.587 69.7606V69.5199C101.587 69.5199 102.188 69.5329 102.982 69.5122C104.352 69.4759 106.355 69.155 107.104 66.8232C107.22 66.4609 107.289 65.8397 107.273 65.273C107.207 62.9308 105.964 61.4323 103.998 61.3262C102.653 61.2538 101.054 61.3185 100.713 61.3055V76.7379C100.729 77.6386 101.481 78.3658 102.405 78.3658H102.74L102.745 78.6246H96.9766L96.9818 78.3658H97.317C98.2379 78.3658 98.9847 77.6463 99.0085 76.7509V62.3847C98.99 61.4841 98.2406 60.7568 97.317 60.7568H96.9818L96.9766 60.5006H104.099L104.093 60.498Z" fill="black"/>
<path id="Vector_68" d="M134.295 76.7344C134.828 77.886 135.805 78.3648 136.615 78.3648H136.837V78.6236H130.891V78.3674H131.124C131.804 78.3674 132.512 77.7774 132.126 76.7421L130.438 72.3321H123.326L121.558 76.7577C121.186 77.7851 121.888 78.3674 122.569 78.3674H122.801V78.6236H117.486V78.3648H117.724C118.526 78.3648 119.502 77.8886 120.035 76.737L126.023 62.803C126.023 62.803 127.002 60.7067 127.002 60.1348H127.239L134.298 76.7344H134.295ZM130.139 71.5557L126.957 63.2456L123.635 71.5557H130.137H130.139Z" fill="black"/>
<path id="Vector_69" d="M155.894 74.4417L154.356 78.624H143.41L143.415 78.3652H143.751C144.674 78.3652 145.424 77.6379 145.442 76.7373V62.3867C145.424 61.486 144.674 60.7588 143.751 60.7588H143.415L143.41 60.5H149.186L149.181 60.7588H148.846C147.922 60.7588 147.173 61.486 147.155 62.3867V77.832H150.941C153.738 77.832 154.812 76.4138 155.628 74.4417H155.892H155.894Z" fill="black"/>
</g>
</g>
</g>
</svg>
