<svg width="222" height="48" viewBox="0 0 222 48" fill="none" xmlns="http://www.w3.org/2000/svg">
<g id="Group 17">
<g id="Group">
<path id="Vector" d="M25.155 24.9863C25.3022 24.8658 25.4593 24.7565 25.5964 24.6248C29.2164 21.1432 32.6449 17.492 35.5392 13.3953C36.4663 12.0839 37.2506 10.6744 38.1034 9.31254C38.3848 8.8628 38.4105 8.42146 38.2863 7.88906C38.0434 6.85366 37.8634 5.79726 37.7691 4.73945C37.662 3.54434 37.9763 2.42208 38.7234 1.44413C39.1591 0.873895 39.6905 0.419949 40.3805 0.160751C41.3748 -0.211933 42.1934 0.0640754 42.7148 0.981777C43.1248 1.70473 43.1762 2.49774 43.1433 3.31036C43.1162 3.97026 43.1291 4.63297 43.1491 5.29427C43.1848 6.46557 42.6233 7.37066 41.7319 8.03757C41.1234 8.49292 40.3677 8.75352 39.6863 9.11779C39.4348 9.2523 39.1034 9.3798 38.9863 9.60116C37.7463 11.9494 36.222 14.1126 34.5835 16.2044C34.5078 16.3011 34.4792 16.4328 34.3892 16.6429C35.9163 15.99 37.3492 15.3918 38.7663 14.7585C39.062 14.6268 39.312 14.3802 39.5563 14.1588C40.7434 13.08 42.0305 12.1763 43.6591 11.8569C44.6091 11.6705 45.5505 11.686 46.4762 11.9942C47.4319 12.3108 48.2361 13.1697 48.0704 14.1616C48.019 14.4671 48.1604 14.8117 48.2461 15.1298C48.589 16.3992 48.1333 17.2496 46.8304 17.5256C46.2147 17.6559 45.5405 17.6629 44.9147 17.5733C42.9619 17.2958 41.0162 16.9694 39.3548 15.7799C39.172 15.6496 38.7777 15.721 38.512 15.7995C36.3363 16.4482 34.4278 17.5915 32.6192 18.9113C31.6549 19.616 30.5607 20.7761 29.9935 21.7428C31.5335 21.0451 33.0964 20.9709 34.372 19.9228C36.1577 18.4573 38.3234 17.7204 40.6505 17.5649C41.2391 17.5256 41.8648 17.6797 42.4376 17.8563C43.2291 18.1001 43.7705 18.6493 43.9576 19.4689C44.0805 20.0083 44.369 20.423 44.7448 20.8335C45.1705 21.2973 45.5676 21.8185 45.8376 22.3803C46.4019 23.5586 46.0062 24.7916 44.9162 25.5496C43.9533 26.2207 42.8562 26.4981 41.7248 26.2627C40.7062 26.0511 39.6677 25.7527 38.7548 25.2763C37.2277 24.4763 35.7806 23.511 34.6263 22.2192C34.0406 21.5635 33.4749 21.4626 32.6635 21.7723C31.4621 22.2304 30.2078 22.5569 28.9921 22.9814C28.6236 23.1103 28.245 23.319 27.9721 23.5895C23.5608 27.9496 18.8694 31.9889 13.7995 35.5994C13.6966 35.6723 13.6223 35.7844 13.6109 36.0127C14.158 35.7479 14.7066 35.4873 15.2523 35.2183C15.798 34.9479 16.3466 34.6803 16.8823 34.3903C19.5365 32.957 22.2151 31.5798 25.1936 30.8946C25.6607 30.7868 25.9664 30.5346 26.1879 30.124C26.4422 29.6533 26.7536 29.2134 27.0179 28.7468C27.9564 27.0893 29.3721 25.8998 31.0164 24.9891C32.4792 24.1779 34.0635 23.8683 35.732 24.3727C37.1749 24.8084 38.2734 25.649 38.8348 27.0459C39.0863 27.6708 39.5063 28.0631 40.0591 28.4372C41.6105 29.4866 42.8005 30.8386 43.2248 32.6964C43.9391 35.8194 42.0334 38.3469 38.7691 38.4786C37.6706 38.5235 36.5563 38.2292 35.452 38.0765C35.1877 38.0401 34.932 37.949 34.7792 37.9098C34.5478 38.9746 34.3163 39.996 34.1063 41.0216C34.0535 41.278 34.0549 41.5484 34.0635 41.8104C34.1249 43.8041 33.3449 45.4504 31.8735 46.7814C30.8221 47.7327 29.5964 47.8854 28.2693 47.3824C27.0007 46.9033 25.9993 46.0514 25.0365 45.1547C23.6465 43.8601 22.4836 42.3988 21.6651 40.6797C20.9922 39.266 20.6751 37.7851 20.718 36.1458C18.7723 35.811 16.9394 35.3444 15.028 36.2986C13.5223 37.0495 11.8809 37.5357 10.3081 38.1606C9.83952 38.3469 9.38096 38.5725 8.95096 38.8331C6.461 40.3449 3.90961 41.7347 1.16251 42.7519C0.909654 42.8458 0.648228 42.9452 0.383946 42.9677C0.26109 42.9775 0.0553824 42.829 0.0125258 42.7085C-0.0303307 42.5922 0.042523 42.3638 0.14395 42.2839C0.322519 42.1424 0.563943 42.078 0.776797 41.9771C2.58391 41.1281 4.38675 40.2706 6.19815 39.43C6.82386 39.1385 7.16956 38.6594 7.41813 38.0359C8.09955 36.3182 8.18098 34.6047 7.56099 32.8561C7.40813 32.426 7.18528 32.1206 6.77242 31.8768C5.6353 31.2029 4.55532 30.4519 3.84818 29.2946C3.15534 28.1611 3.02248 26.987 3.50819 25.7499C3.82104 24.9541 4.35675 24.4133 5.22102 24.1779C5.5653 24.084 5.92244 23.9145 6.18958 23.6833C7.15385 22.8525 8.2267 22.3733 9.78096 22.5597C9.83668 22.2724 9.84524 21.925 9.97238 21.6252C10.9281 19.3708 13.1809 18.6086 15.3337 19.8192C15.7923 20.077 16.2194 20.1905 16.7609 20.1806C19.8037 20.1274 21.7108 23.0528 20.4265 25.7639C19.628 27.4508 18.2394 28.5633 16.5609 29.303C15.6723 29.6953 14.698 29.9237 13.7409 30.1325C13.1395 30.2628 12.7038 30.5093 12.3081 30.9731C11.2124 32.2537 10.2052 33.5861 9.38811 35.0586C8.89526 35.9483 8.72526 36.9164 8.60812 37.9784C9.39239 37.4825 10.1895 37.0061 10.9567 36.4891C15.3595 33.5202 19.4965 30.2263 23.4179 26.669C23.8222 26.3019 24.0522 25.925 24.0408 25.38C24.0336 25.0157 24.0708 24.6431 24.1522 24.2872C24.4493 22.9982 24.0393 21.8577 23.4351 20.7495C23.3708 20.6318 23.2836 20.5253 23.2308 20.4034C22.7251 19.2279 21.9451 18.6171 20.5237 18.6157C19.2508 18.6143 17.9608 18.3046 16.7109 18.002C14.8123 17.5438 13.6166 15.8527 13.748 13.9739C13.8409 12.6611 14.4638 11.6719 15.7352 11.1984C16.418 10.9448 16.8809 10.5665 17.198 9.92201C17.5494 9.20887 18.1708 8.7339 18.9108 8.41866C20.0951 7.91287 21.1708 8.10622 22.1251 8.93566C22.9179 9.62498 23.3665 10.5217 23.5693 11.522C23.9736 13.5073 23.8036 15.4352 22.8593 17.2664C22.7822 17.4149 22.7108 17.5648 22.6393 17.7162C22.6251 17.7456 22.6279 17.782 22.6222 17.8254C23.2836 18.851 23.9479 19.885 24.6636 20.9947C24.7693 20.7803 24.8736 20.5968 24.9536 20.402C25.4293 19.2629 25.8722 18.1085 26.3864 16.9862C26.5679 16.5911 26.6136 16.2633 26.4879 15.8485C26.2564 15.0836 26.0364 14.3088 25.9093 13.5214C25.6864 12.1413 25.8807 10.7907 26.4722 9.5157C27.0221 8.32899 27.8879 7.59063 29.3164 7.64247C29.7121 7.65648 30.1207 7.54019 30.5121 7.43931C32.5035 6.92092 33.9263 7.99974 33.8078 10.0229C33.642 12.8292 32.1721 14.907 29.865 16.4622C29.1921 16.9148 28.4807 17.293 27.635 17.3953C27.3836 17.4261 27.0521 17.6405 26.945 17.8591C25.865 20.0728 25.1636 22.3929 25.0493 24.8602C25.0493 24.8812 25.0836 24.9037 25.1493 24.9849L25.155 24.9863ZM40.7491 4.72404H40.7391C40.782 4.9314 40.9077 5.16397 40.8505 5.33911C40.7077 5.78044 40.4805 6.19516 40.2948 6.62389C40.2777 6.66452 40.3248 6.73037 40.342 6.78781C40.552 6.69815 40.7648 6.60708 41.1834 6.42774C40.792 7.00218 40.5305 7.38327 40.2705 7.76576C41.3591 7.35945 42.1219 6.67713 42.2234 5.54366C42.3019 4.65819 42.2534 3.7601 42.2419 2.86902C42.2376 2.57199 42.2076 2.26656 42.1319 1.98074C41.8177 0.803841 41.0905 0.575468 40.112 1.32924C38.7963 2.34222 38.3177 4.13559 38.9105 5.95698C39.1677 5.05889 39.0906 4.11037 39.7634 3.3636C39.7534 3.75169 39.7448 4.14119 39.7334 4.58393C39.9334 4.4186 40.0462 4.32333 40.3434 4.07674C40.2377 4.73385 40.1691 5.16397 40.1005 5.5941C40.142 5.60811 40.1848 5.62212 40.2262 5.63613C40.4005 5.3321 40.5748 5.02807 40.7491 4.72404ZM44.7019 12.7396L44.7491 12.755C43.6976 12.6485 43.2533 12.769 42.5419 13.3462C42.9319 13.3995 43.3062 12.8923 43.8376 13.3476C43.3291 13.5648 42.8991 13.7483 42.3676 13.9767C42.9534 14.121 43.4419 13.6923 43.9948 14.1602C43.4091 14.3326 42.9376 14.4713 42.3562 14.6422C43.0191 14.8664 43.6262 14.5582 44.2476 15.0023C43.5933 15.3287 42.9262 15.0359 42.3119 15.3666C42.9734 15.5053 43.5291 15.6216 44.0862 15.7379V15.721C43.8433 16.0195 43.5205 16.0321 43.1662 15.99C42.7948 15.9466 42.4191 15.9368 42.0448 15.9116C43.4348 16.4608 44.8462 16.8293 46.3205 16.7354C47.3204 16.6724 47.6076 16.1862 47.3519 15.2419C47.249 14.8636 47.1433 14.4671 47.1576 14.0818C47.1776 13.4807 46.879 13.0856 46.3705 12.9371C45.8419 12.783 45.2619 12.7984 44.7048 12.7396H44.7019ZM11.4352 24.8518C11.6524 24.8518 11.8681 24.8518 12.1195 24.8504C12.2324 25.5229 12.3381 26.1576 12.4438 26.7937C12.4838 26.7895 12.5238 26.7853 12.5623 26.7811C12.6581 25.9152 12.7552 25.048 12.8509 24.1821C12.9481 24.1849 13.0452 24.1891 13.1409 24.1919C13.3409 25.2245 12.9195 26.3019 13.2152 27.5573C13.3809 26.9562 13.4881 26.5751 13.5909 26.1912C13.6866 25.8368 13.758 25.4767 13.8752 25.1292C13.9895 24.7916 13.9395 24.3712 14.438 23.9677C14.4852 25.2665 13.8823 26.2767 13.9366 27.3808C14.2309 26.9562 14.4009 26.4869 14.6523 26.0637C14.8937 25.6574 14.8437 25.0312 15.6552 24.7916C15.1295 26.0203 14.6695 27.0977 14.1409 28.3335C15.0752 27.5783 15.308 26.4981 16.0952 25.8718C16.1666 25.918 16.2366 25.9643 16.308 26.0105C15.9109 26.7068 15.5152 27.4032 15.118 28.0995C15.1566 28.1317 15.1966 28.1625 15.2352 28.1948C15.758 27.7114 16.2809 27.2266 16.9109 26.6438C16.9409 27.703 15.9166 27.9398 15.5152 28.7804C17.3166 28.0715 18.6523 27.1159 19.5094 25.5874C20.1237 24.4931 20.0537 23.3947 19.4065 22.3607C18.7751 21.3533 17.7351 21.0073 16.5966 21.0913C15.9694 21.1376 15.5023 20.9779 14.9937 20.6612C13.1952 19.5418 11.2567 20.2983 10.6638 22.3117C10.5552 22.6788 10.5809 22.9646 10.8267 23.3233C11.1324 23.7702 11.2524 24.3404 11.4652 24.8644C11.7366 25.4431 11.2595 26.1646 11.9366 26.8596C11.7709 26.0595 11.9938 25.373 11.4324 24.8504L11.4352 24.8518ZM32.8621 33.4011L32.7778 33.687C31.5049 33.6071 30.3064 33.1195 29.0307 32.9374C29.915 33.5216 30.8421 33.9896 31.7621 34.4688C32.1206 34.6551 32.4349 34.8162 32.8992 34.7112C33.2778 34.6257 33.7592 34.6761 34.2063 35.1161C33.8263 35.1931 33.5649 35.2464 33.2435 35.3122C33.7935 35.9875 34.2035 36.7385 35.0606 37.0243C36.3234 37.446 37.6177 37.7347 38.962 37.596C41.4705 37.3368 42.8734 35.4201 42.3691 33.0089C41.9934 31.2113 40.8062 30.012 39.3363 29.0424C38.8048 28.6922 38.402 28.3153 38.182 27.7156C37.3591 25.4809 34.912 24.5758 32.7492 25.2497C30.9407 25.813 29.5193 26.9142 28.3721 28.3741C28.2021 28.5899 28.0793 28.8421 27.9336 29.0774C28.9693 28.468 29.8335 27.6666 31.0007 27.3597C30.0935 28.3657 28.7278 28.8519 27.8693 30.1829C28.695 29.8298 29.3293 29.5062 29.9978 29.2876C30.6278 29.0816 31.2035 28.5871 32.1706 28.8182C30.7478 29.4277 29.5164 29.9531 28.2864 30.4799C29.0564 30.5766 29.7578 30.3762 30.4664 30.2067C31.9792 29.8466 32.0578 29.848 32.6521 30.1535C31.0435 30.5346 29.5407 30.8918 28.0393 31.2477C28.5707 31.4411 29.0964 31.5013 29.625 31.5209C30.2007 31.5419 30.7807 31.4999 31.3549 31.5307C31.8535 31.5587 32.3949 31.2603 32.9463 31.7045C32.2049 32.0659 31.4821 31.9454 30.7921 31.9833C30.0664 32.0239 29.3335 31.9693 28.605 31.9566C28.5907 32.0281 28.5764 32.0996 28.5621 32.171C29.995 32.5815 31.4278 32.992 32.8621 33.404V33.4011ZM23.4808 36.4275C23.4579 36.4835 23.4365 36.541 23.4136 36.597C24.0536 36.81 24.6922 37.0257 25.3336 37.2373C25.9507 37.4404 26.5679 37.638 27.1864 37.8369L27.0893 38.1704C25.565 37.9042 24.1379 37.2107 22.5936 36.9669C23.2051 37.404 23.8579 37.7431 24.495 38.1101C25.1365 38.48 25.9122 38.6426 26.565 39.3291C25.7479 39.3571 25.275 38.941 24.7407 38.7182C24.1893 38.4884 23.6608 38.204 23.1222 37.9434L23.0079 38.134C23.4822 38.5501 23.9722 38.9494 24.4265 39.3865C24.875 39.8167 25.5465 40.0324 25.7436 40.7203C24.3808 40.0618 23.2836 39.0657 22.2051 38.0373C22.7979 39.3879 23.6993 40.506 24.6579 41.5876C24.7793 41.7235 24.8179 41.9295 24.895 42.1032C23.6551 41.3634 22.9522 40.2019 22.0951 39.175C22.7293 41.2514 23.9622 42.9452 25.5493 44.3743C26.4164 45.1547 27.3836 45.8539 28.3921 46.4493C29.3007 46.9859 30.3121 46.9215 31.1507 46.2139C32.4806 45.0903 33.1706 43.6598 33.1721 41.9155C33.1721 41.4279 33.2678 40.9389 33.3549 40.4555C33.4206 40.0969 33.5921 39.7522 33.6321 39.3935C33.8506 37.3816 33.3635 36.2874 31.9078 35.5826C29.9121 34.6159 27.7864 34.6047 25.4665 35.1567C26.3464 35.3402 27.0921 34.9241 27.7693 35.5084C26.7007 35.6274 25.6322 35.7451 24.5636 35.8642C25.5922 36.2565 26.6707 36.2804 27.695 36.6502C27.6136 36.7847 27.5936 36.8394 27.5793 36.838C26.2136 36.7049 24.8493 36.5676 23.4836 36.4303L23.4808 36.4275ZM18.3194 15.2573C18.3837 15.176 18.448 15.0948 18.5123 15.0135C19.2351 15.5781 19.958 16.1428 20.6808 16.7074C20.5737 16.2352 20.3151 15.9256 20.1322 15.5767C19.9722 15.2741 19.488 15.0625 19.748 14.5385C20.4522 15.1004 20.7522 15.9438 21.4879 16.3922C21.3679 15.955 21.1794 15.5641 21.0208 15.1634C20.8765 14.7991 20.5994 14.4629 20.6108 14.058C20.6922 14.0243 20.7737 13.9893 20.8551 13.9557C21.2308 14.6688 21.6065 15.3834 22.0294 16.1862C22.3151 15.2026 21.7036 14.369 22.1436 13.5073C22.2865 13.9809 22.4293 14.4545 22.6036 15.0331C22.9751 13.6503 22.9479 12.06 22.4808 10.991C22.0551 10.0159 21.4651 9.14582 20.2394 9.06315C19.0608 8.98469 18.3751 9.70064 17.8351 10.6099C17.818 10.6394 17.8008 10.6674 17.788 10.6982C17.508 11.3105 17.0366 11.6733 16.3894 11.9143C14.778 12.5154 14.2195 13.9277 14.9266 15.4674C15.5766 16.8853 17.2651 17.6503 19.1665 17.3925C18.8251 16.9764 18.0737 17.0479 17.828 16.2548C18.718 16.6331 19.4751 16.9554 20.2322 17.2776C20.2637 17.2272 20.2937 17.1768 20.3251 17.1263C19.6565 16.5028 18.9865 15.8808 18.318 15.2573H18.3194ZM39.8448 21.2413C39.8377 21.3435 39.8305 21.4444 39.822 21.5467L37.1749 21.4192C37.9977 21.9418 38.9591 21.9936 39.7334 22.4742C39.7048 22.5597 39.6763 22.6465 39.6491 22.732C38.7691 22.5064 37.8891 22.2809 37.0092 22.0553C37.2977 22.3915 37.6406 22.5793 37.9806 22.7712C38.351 22.9795 38.582 23.2579 38.6734 23.6063C38.0363 23.298 37.4363 23.008 36.8377 22.718C37.8234 23.6777 38.8691 24.5282 40.1648 24.9611C40.8619 25.1951 41.6105 25.3898 42.3377 25.3996C42.9519 25.408 43.6205 25.2189 44.1762 24.9457C45.2105 24.4371 45.469 23.3583 44.8648 22.3985C44.6348 22.0329 44.3533 21.6882 44.0419 21.387C43.5948 20.954 43.2548 20.4931 43.1476 19.8654C43.0191 19.1186 42.4819 18.7109 41.7734 18.5624C41.3177 18.4671 40.8148 18.4041 40.3662 18.4896C39.3391 18.6871 38.3306 18.9785 37.3192 19.2489C37.1677 19.2896 37.0434 19.4269 36.8106 19.5852C37.5534 19.6735 38.0906 19.0598 38.8534 19.4829C38.2491 19.6987 37.7749 19.8668 37.3006 20.0363C37.3163 20.0812 37.332 20.126 37.3477 20.1708C38.0591 20.1512 38.7705 20.1316 39.482 20.112C39.4905 20.2073 39.4991 20.3039 39.5077 20.3992C38.6948 20.5127 37.882 20.6248 37.0692 20.7383C37.0777 20.7831 37.0863 20.8293 37.0934 20.8742C38.012 20.9961 38.9291 21.118 39.8477 21.2413H39.8448ZM27.9564 14.8944C28.6564 14.2625 28.6978 13.2832 29.455 12.4327C29.5264 13.3672 28.9693 13.9095 28.9293 14.6086C29.7278 14.1504 29.765 13.1235 30.4935 12.6975C30.6007 12.7564 30.7064 12.8152 30.8135 12.8741C30.585 13.1557 30.3578 13.4387 30.1292 13.7203C30.2178 13.7679 30.3078 13.8156 30.3964 13.8632C30.7649 13.4933 31.1321 13.1235 31.5006 12.7536C31.5506 12.7872 31.6021 12.8194 31.6521 12.8531C31.6278 13.0492 31.6035 13.2439 31.5707 13.5144C32.4378 12.4187 32.8421 11.3497 32.9064 10.0579C32.9792 8.57978 32.2192 7.96191 30.7592 8.27995C30.1692 8.40885 29.5521 8.41866 28.9693 8.56858C28.5635 8.67366 28.1207 8.84459 27.8293 9.1234C26.8993 10.0145 26.4936 12.2506 26.9536 13.5102C27.1621 13.2271 26.9479 12.7242 27.5236 12.4804C27.515 13.087 27.5079 13.5914 27.4979 14.2429C27.965 13.6769 27.7893 12.9805 28.3293 12.5322C28.5693 13.045 28.3221 13.4065 28.2479 13.775C28.1707 14.1518 28.0564 14.5217 27.9578 14.8944H27.9564ZM7.58385 27.2715L7.92098 27.2855C7.95384 28.1233 7.98813 28.9612 8.02099 29.7976C8.32098 29.4235 8.42669 29.0172 8.58526 28.6319C8.72811 28.2858 8.6324 27.7941 9.2281 27.5461C9.13953 28.0981 9.06954 28.5324 9.00097 28.9654C10.1024 27.8291 10.7824 26.5527 10.5967 24.9625C10.4595 23.7856 9.50525 23.1257 8.35241 23.4998C7.79242 23.6819 7.30527 24.0812 6.78242 24.3755C6.37814 24.6024 5.99101 24.9177 5.5553 25.0185C4.90531 25.1685 4.55674 25.5524 4.34675 26.1044C3.81961 27.4914 4.31532 28.6249 5.21531 29.5776C5.42102 29.3633 5.61102 29.1657 5.88387 28.8841C5.86816 28.737 5.83387 28.4161 5.79816 28.0967C5.85816 28.0827 5.91815 28.0687 5.97958 28.0547C6.20815 28.4918 6.43529 28.9275 6.73529 29.502C6.86529 28.6347 6.38101 27.9482 6.781 27.2519C6.941 27.5825 7.01385 27.9258 7.09385 28.2676C7.17528 28.6137 7.26242 28.9598 7.3467 29.3044L7.48956 29.275C7.52099 28.6067 7.55241 27.9384 7.58527 27.2715H7.58385ZM18.3251 34.6201C18.3351 34.6887 18.3437 34.756 18.3537 34.8246C19.0751 34.9409 19.8094 35.0096 20.5137 35.1889C21.2422 35.3753 21.8951 35.2562 22.5908 35.0376C23.7479 34.6747 24.9322 34.3973 26.1093 34.0989C26.4893 34.0022 26.885 33.9588 27.3864 33.8705C26.7179 33.0803 26.1307 32.384 25.5465 31.6932C22.9451 32.3391 20.6108 33.425 18.3237 34.6201H18.3251ZM8.83383 34.0779C9.43954 33.2246 9.92953 32.4792 10.4795 31.7787C11.0281 31.0782 11.6366 30.4211 12.2195 29.7444C11.8381 29.0634 11.4938 28.4512 11.1224 27.7885C10.5367 28.6305 10.0581 29.3493 9.54525 30.0442C9.1124 30.6298 8.38241 31.137 8.25241 31.7717C8.12241 32.4078 8.57384 33.1574 8.83383 34.0793V34.0779ZM28.365 33.1476C28.3307 33.2232 28.2964 33.2989 28.2636 33.3745C28.645 33.446 28.7307 34.0358 29.405 33.785C29.0078 33.5413 28.6864 33.3437 28.3664 33.1462L28.365 33.1476ZM30.2207 14.8608C30.2535 14.893 30.2878 14.9238 30.3207 14.9561C30.4892 14.7893 30.6564 14.6212 30.8249 14.4545C30.7878 14.4194 30.7507 14.383 30.7121 14.348C30.5478 14.5189 30.3835 14.6899 30.2192 14.8608H30.2207Z" fill="black"/>
<path id="Vector_2" d="M33.1562 33.4978C33.6862 33.3005 34.0862 33.2431 34.6219 33.5146C34.0862 33.8323 33.6848 33.947 33.1562 33.4978Z" fill="black"/>
<path id="Vector_3" d="M33.3516 31.6253C33.7973 31.2433 34.1958 31.1985 34.7701 31.3734C34.303 31.8198 33.9001 31.8394 33.3516 31.6253Z" fill="black"/>
<path id="Vector_4" d="M34.1717 29.6344C33.8902 30.1298 33.5045 30.0193 33.0488 30.0333C33.3274 29.4903 33.6817 29.5071 34.1717 29.6344Z" fill="black"/>
<path id="Vector_5" d="M32.5312 28.6157C32.7527 28.228 33.0684 28.0867 33.5984 28.2C33.2855 28.6478 32.9341 28.6856 32.5312 28.6157Z" fill="black"/>
<path id="Vector_6" d="M33.1445 26.458C33.3445 26.2901 33.5969 26.2238 33.9017 26.2593C33.7131 26.4692 33.4607 26.5354 33.1445 26.458Z" fill="black"/>
<path id="Vector_7" d="M31.6543 26.6784C31.9172 26.593 32.18 26.5076 32.5771 26.3789C32.4057 27.017 32.0543 26.9471 31.7429 26.9555C31.7129 26.8631 31.6843 26.7707 31.6543 26.6784Z" fill="black"/>
<path id="Vector_8" d="M34.9697 28.0312C34.7997 28.0662 34.6283 28.1026 34.4583 28.1376C34.4555 28.0466 34.454 27.9543 34.4512 27.8633C34.6183 27.8605 34.7855 27.8563 34.9512 27.8535C34.9569 27.9137 34.964 27.9725 34.9697 28.0326V28.0312Z" fill="black"/>
<path id="Vector_9" d="M29.4853 35.9498C29.1024 35.856 28.7181 35.7637 28.1367 35.6209C28.8339 35.1899 29.1853 35.4838 29.5667 35.6111C29.5396 35.7245 29.5124 35.8378 29.4853 35.9498Z" fill="black"/>
<path id="Vector_10" d="M28.4102 36.6895C28.8302 36.7944 29.1444 36.8742 29.6173 36.9917C28.813 37.3332 28.7687 37.3206 28.4102 36.6895Z" fill="black"/>
<path id="Vector_11" d="M25.2324 42.3652C25.6581 42.5737 25.9438 42.7137 26.4024 42.9376C25.8605 43.0206 25.4705 42.8298 25.2324 42.3652Z" fill="black"/>
<path id="Vector_12" d="M28.6032 38.8309C28.3246 38.7358 28.046 38.642 27.6289 38.4993C28.1832 38.0963 28.436 38.3258 28.686 38.5637C28.6589 38.6532 28.6303 38.7414 28.6032 38.8309Z" fill="black"/>
<path id="Vector_13" d="M27.6702 40.1334C27.4416 40.0256 27.2116 39.9179 26.873 39.7583C27.2521 39.6576 27.5178 39.7826 27.6702 40.1334Z" fill="black"/>
<path id="Vector_14" d="M27.2968 41.5396C27.0183 41.4137 26.8068 41.3199 26.584 41.2192C26.6668 41.0946 26.6983 41.0037 26.734 41.0023C27.0368 40.9897 27.3254 41.0121 27.2983 41.5396H27.2968Z" fill="black"/>
<path id="Vector_15" d="M17.0273 26.4713C17.1345 26.2387 17.2402 26.0047 17.3902 25.6797C17.7845 26.1799 17.503 26.369 17.2816 26.575C17.1973 26.5413 17.1116 26.5063 17.0273 26.4727V26.4713Z" fill="black"/>
<path id="Vector_16" d="M16.9056 24.9601C16.787 25.1814 16.6699 25.4042 16.4799 25.7601C16.2013 25.2067 16.3942 25.0063 16.6656 24.834C16.7456 24.876 16.8256 24.918 16.9056 24.9601Z" fill="black"/>
<path id="Vector_17" d="M16.1545 23.9038C16.0688 24.1151 15.9845 24.3265 15.8988 24.5392C15.7974 24.5042 15.6959 24.4692 15.5945 24.4356C15.4088 24.1543 15.4817 23.936 15.8059 23.7793C15.9217 23.8213 16.0374 23.8633 16.1531 23.9052L16.1545 23.9038Z" fill="black"/>
<path id="Vector_18" d="M12.8477 23.4504C12.8905 23.2165 12.9348 22.9811 13.0105 22.5762C13.4362 23.0469 13.2677 23.2851 13.1248 23.5261C13.0319 23.5009 12.9405 23.4757 12.8477 23.4518V23.4504Z" fill="black"/>
<path id="Vector_19" d="M11.9627 23.5312C11.9684 23.716 11.9769 23.9007 11.9727 24.084C11.9727 24.091 11.8127 24.1148 11.807 24.1008C11.7384 23.9343 11.6841 23.7607 11.627 23.5886C11.7384 23.569 11.8512 23.5508 11.9627 23.5312Z" fill="black"/>
<path id="Vector_20" d="M14.7824 22.913C14.7567 23.1243 14.731 23.3343 14.6938 23.6337C14.2052 23.3245 14.3781 23.102 14.541 22.8809C14.621 22.8921 14.7024 22.9018 14.7824 22.913Z" fill="black"/>
<path id="Vector_21" d="M22.0693 13.133C21.7455 12.8108 21.5851 12.4657 21.5879 12.0977C22.1251 12.2616 21.9965 12.6343 22.0693 13.133Z" fill="black"/>
<path id="Vector_22" d="M20.457 13.7843C20.1741 13.3738 19.977 13.0908 19.7812 12.8077C19.8484 12.7657 19.9155 12.7237 19.9827 12.6816C20.277 12.9058 20.707 13.0473 20.457 13.7843Z" fill="black"/>
<path id="Vector_23" d="M17.3558 16.3356C17.1144 16.2572 16.873 16.1789 16.543 16.0711C16.8477 15.9041 17.1425 15.927 17.4272 16.1397C17.403 16.204 17.3801 16.2698 17.3558 16.3342V16.3356Z" fill="black"/>
<path id="Vector_24" d="M18.834 13.5198C19.3454 13.51 19.3768 13.8206 19.4668 14.1579C18.9426 14.1705 18.8997 13.8682 18.834 13.5198Z" fill="black"/>
<path id="Vector_25" d="M17.5071 14.0879C17.6842 14.2502 17.8614 14.4111 18.1513 14.677C17.5685 14.782 17.4071 14.5917 17.3242 14.2922C17.3842 14.2236 17.4456 14.1565 17.5056 14.0879H17.5071Z" fill="black"/>
<path id="Vector_26" d="M41.0049 21.8831C40.7349 21.8257 40.4649 21.7698 40.0078 21.6732C40.5507 21.2912 40.8207 21.3891 41.0764 21.599C41.0521 21.6942 41.0292 21.788 41.0049 21.8831Z" fill="black"/>
<path id="Vector_27" d="M39.5956 23.6895C39.8541 23.7916 40.1127 23.8938 40.547 24.0659C39.9584 24.3654 39.717 24.1918 39.4941 23.9525C39.5284 23.8644 39.5627 23.7776 39.597 23.6895H39.5956Z" fill="black"/>
<path id="Vector_28" d="M40.8752 20.3756C40.4209 20.4148 40.1609 20.4371 39.8438 20.4637C40.018 20.1381 40.3618 20.1088 40.8752 20.3756Z" fill="black"/>
<path id="Vector_29" d="M40.0327 19.3807C39.8084 19.4003 39.5856 19.4199 39.2441 19.4507C39.507 19.2063 39.7699 19.183 40.0327 19.3807Z" fill="black"/>
<path id="Vector_30" d="M40.8185 23.1385C40.6214 23.0545 40.4257 22.9706 40.2285 22.8852C40.2557 22.8082 40.2842 22.7313 40.3114 22.6543C40.5199 22.7117 40.7285 22.769 40.9371 22.825L40.8185 23.1371V23.1385Z" fill="black"/>
<path id="Vector_31" d="M29.9025 11.4437C29.8083 11.6693 29.7154 11.8948 29.594 12.1863C29.4225 11.9116 29.4559 11.638 29.694 11.3652C29.764 11.3919 29.8325 11.4171 29.9025 11.4437Z" fill="black"/>
<path id="Vector_32" d="M27.7139 11.1426C27.9325 11.5531 27.8296 11.8039 27.4967 12.0813C27.2082 11.668 27.4025 11.4382 27.7139 11.1426Z" fill="black"/>
<path id="Vector_33" d="M28.8966 11.3778C28.7766 11.5866 28.6566 11.7953 28.4309 12.1904C28.2724 11.6006 28.3338 11.361 28.6709 11.2461L28.8966 11.3792V11.3778Z" fill="black"/>
<path id="Vector_34" d="M32.1116 11.8743C32.023 12.0719 31.9345 12.2694 31.7902 12.5917C31.4873 12.1265 31.6531 11.943 31.8716 11.7734C31.9516 11.8071 32.0316 11.8407 32.1116 11.8743Z" fill="black"/>
<path id="Vector_35" d="M31.1875 11.5156C31.0461 11.9037 30.9732 12.1027 30.8603 12.4109C30.5246 11.957 30.6546 11.7776 31.1875 11.5156Z" fill="black"/>
<path id="Vector_36" d="M6.39587 25.584C6.45016 25.9076 6.50444 26.2313 6.58158 26.6838C5.92731 26.3826 6.03302 26.0127 6.12588 25.647C6.21588 25.626 6.30588 25.605 6.39587 25.584Z" fill="black"/>
<path id="Vector_37" d="M5.16694 28.5594C4.7498 28.3394 4.48981 28.1699 4.67695 27.7188C5.04837 27.8575 5.22551 28.0536 5.16694 28.5594Z" fill="black"/>
<path id="Vector_38" d="M9.27571 26.3301C9.31428 26.4714 9.38428 26.6128 9.37999 26.7527C9.37713 26.852 9.27571 26.9486 9.04714 27.0186C9.03143 26.8031 9.01571 26.5876 9 26.3721C9.09143 26.3581 9.18285 26.3441 9.27428 26.3301H9.27571Z" fill="black"/>
<path id="Vector_39" d="M7.49032 26.7776C7.38889 26.4498 7.32461 26.2466 7.22461 25.9258C7.5227 26.1397 7.61127 26.4236 7.49032 26.7776Z" fill="black"/>
<path id="Vector_40" d="M5.302 26.5898C5.352 26.8081 5.40201 27.0264 5.47486 27.3469C4.97487 27.1566 4.90915 26.9369 5.05344 26.6402C5.13629 26.6234 5.21915 26.6066 5.30057 26.5898H5.302Z" fill="black"/>
<path id="Vector_41" d="M44.084 15.7389C44.4497 15.8103 44.8154 15.883 45.2568 15.9698C44.5425 16.4358 44.3868 16.3924 44.084 15.7249C44.084 15.7221 44.084 15.7403 44.084 15.7403V15.7389Z" fill="black"/>
<path id="Vector_42" d="M45.5653 15.0148C45.0667 15.0386 44.7781 15.0526 44.3281 15.0736C44.6948 14.7751 45.1072 14.7555 45.5653 15.0148Z" fill="black"/>
<path id="Vector_43" d="M45.1657 14.044C44.8885 14.0315 44.6128 14.0189 44.1914 13.9993C44.6085 13.5081 44.8942 13.5962 45.1828 13.7502C45.1771 13.8481 45.1714 13.9461 45.1657 14.0454V14.044Z" fill="black"/>
<path id="Vector_44" d="M44.7026 12.7402C44.7541 12.883 44.8055 13.0243 44.8898 13.2622C44.6212 13.251 44.4269 13.244 44.2326 13.237C44.2098 13.174 44.1869 13.1125 44.1641 13.0495C44.3583 12.9515 44.5526 12.8536 44.7469 12.7556L44.7012 12.7402H44.7026Z" fill="black"/>
<path id="Vector_45" d="M40.7499 4.72443C40.9213 4.44141 41.0927 4.15699 41.317 3.78711C41.5941 4.51427 41.2098 4.64877 40.7427 4.72583C40.7398 4.72583 40.7499 4.72583 40.7499 4.72583V4.72443Z" fill="black"/>
<path id="Vector_46" d="M40.917 3.06648C40.8456 3.29066 40.7742 3.51623 40.6485 3.91133C40.3099 3.40835 40.4385 3.18418 40.6885 2.98242L40.917 3.06648Z" fill="black"/>
<path id="Vector_47" d="M39.8711 2.57912C39.9397 2.38461 40.0082 2.19009 40.1125 1.89062C40.5211 2.29785 40.2682 2.47417 40.1097 2.66588C40.0297 2.6379 39.9497 2.60851 39.8711 2.58052V2.57912Z" fill="black"/>
</g>
<g id="Group 16">
<g id="EFFECT COSMETICS">
<path id="Vector_48" d="M204.916 45.7547H205.404C205.449 45.9845 205.509 46.2069 205.585 46.4219C205.668 46.6369 205.774 46.826 205.902 46.9891C206.031 47.1522 206.19 47.2819 206.379 47.3783C206.568 47.4747 206.798 47.5229 207.07 47.5229C207.592 47.5229 208.019 47.3783 208.352 47.0892C208.684 46.8 208.85 46.4368 208.85 45.9994C208.85 45.7399 208.801 45.5175 208.703 45.3321C208.605 45.1394 208.476 44.9689 208.318 44.8206C208.159 44.6797 207.977 44.55 207.773 44.4314C207.569 44.3128 207.358 44.1904 207.138 44.0644C206.912 43.9458 206.681 43.8197 206.447 43.6863C206.212 43.5454 206.001 43.3823 205.812 43.197C205.623 43.0042 205.468 42.7855 205.347 42.5409C205.226 42.2888 205.165 41.9923 205.165 41.6513C205.165 41.2509 205.23 40.9025 205.358 40.6059C205.494 40.3094 205.679 40.061 205.914 39.8609C206.141 39.6681 206.413 39.5235 206.73 39.4272C207.048 39.3234 207.388 39.2715 207.751 39.2715C207.887 39.2715 208.015 39.2789 208.136 39.2937C208.257 39.3086 208.374 39.3234 208.488 39.3382C208.601 39.353 208.714 39.3716 208.828 39.3938C208.941 39.4161 209.062 39.4346 209.191 39.4494L209.406 41.073H208.919C208.85 40.6356 208.711 40.3094 208.499 40.0944C208.295 39.8794 207.989 39.7719 207.581 39.7719C207.059 39.7719 206.666 39.9128 206.401 40.1945C206.144 40.4762 206.016 40.8209 206.016 41.2287C206.016 41.4882 206.073 41.7217 206.186 41.9293C206.299 42.1294 206.447 42.3111 206.628 42.4742C206.81 42.6447 207.014 42.7967 207.24 42.9301C207.475 43.0636 207.713 43.1859 207.955 43.2971C208.182 43.4157 208.408 43.5417 208.635 43.6752C208.862 43.8012 209.062 43.9495 209.236 44.12C209.417 44.2905 209.561 44.4907 209.667 44.7205C209.78 44.9503 209.837 45.2246 209.837 45.5434C209.837 45.9512 209.754 46.3107 209.588 46.6221C209.421 46.9261 209.206 47.1781 208.941 47.3783C208.677 47.5859 208.374 47.7416 208.034 47.8453C207.694 47.9491 207.35 48.001 207.002 48.001C206.655 48.001 206.337 47.9714 206.05 47.9121C205.77 47.8528 205.483 47.7564 205.188 47.6229L204.916 45.7547Z" fill="black"/>
<path id="Vector_49" d="M202.709 41.718H202.289C202.176 41.0359 201.923 40.5429 201.53 40.239C201.136 39.9276 200.596 39.7719 199.908 39.7719C199.417 39.7719 198.963 39.8646 198.547 40.0499C198.132 40.2278 197.769 40.4799 197.459 40.8061C197.157 41.1323 196.918 41.5252 196.745 41.9849C196.571 42.4371 196.484 42.9375 196.484 43.4861C196.484 44.094 196.578 44.6464 196.767 45.1431C196.956 45.6398 197.213 46.0661 197.538 46.4219C197.863 46.7704 198.245 47.041 198.684 47.2337C199.13 47.4265 199.602 47.5229 200.101 47.5229C200.713 47.5229 201.201 47.3338 201.564 46.9557C201.926 46.5702 202.164 46.0846 202.278 45.4989H202.743L202.425 47.4005C202.297 47.4821 202.13 47.5599 201.926 47.6341C201.722 47.7082 201.503 47.7712 201.269 47.8231C201.027 47.8824 200.785 47.9269 200.543 47.9565C200.301 47.9862 200.082 48.001 199.885 48.001C199.213 48.001 198.6 47.8972 198.049 47.6897C197.497 47.4747 197.021 47.1707 196.62 46.7778C196.219 46.3849 195.909 45.9141 195.69 45.3655C195.471 44.8169 195.361 44.2015 195.361 43.5195C195.361 42.9042 195.486 42.337 195.736 41.8181C195.993 41.2991 196.329 40.8506 196.745 40.4725C197.168 40.0944 197.648 39.8016 198.185 39.594C198.721 39.379 199.277 39.2715 199.851 39.2715C200.328 39.2715 200.8 39.3382 201.269 39.4717C201.745 39.5977 202.183 39.7385 202.584 39.8942L202.709 41.718Z" fill="black"/>
<path id="Vector_50" d="M191.069 40.8838C191.069 40.6539 191.054 40.4723 191.024 40.3389C191.001 40.2054 190.948 40.1053 190.865 40.0386C190.789 39.9719 190.68 39.9311 190.536 39.9163C190.392 39.894 190.207 39.8792 189.98 39.8718V39.4492C190.117 39.464 190.332 39.4715 190.627 39.4715C190.922 39.4715 191.231 39.4715 191.557 39.4715C191.889 39.4715 192.203 39.4715 192.498 39.4715C192.8 39.464 193.027 39.4566 193.178 39.4492V39.8718C192.944 39.8792 192.755 39.894 192.611 39.9163C192.467 39.9311 192.358 39.9719 192.282 40.0386C192.207 40.1053 192.157 40.2054 192.135 40.3389C192.112 40.4723 192.101 40.6539 192.101 40.8838V46.2883C192.101 46.5255 192.112 46.7183 192.135 46.8666C192.165 47.0074 192.218 47.1186 192.294 47.2002C192.377 47.2817 192.486 47.3373 192.622 47.367C192.766 47.3966 192.951 47.4115 193.178 47.4115V47.8229C193.027 47.8229 192.804 47.8229 192.509 47.8229C192.214 47.8155 191.904 47.8118 191.579 47.8118C191.254 47.8118 190.94 47.8118 190.638 47.8118C190.343 47.8118 190.124 47.8155 189.98 47.8229V47.4115C190.2 47.4115 190.381 47.3966 190.525 47.367C190.668 47.3373 190.778 47.2817 190.854 47.2002C190.937 47.1186 190.993 47.0074 191.024 46.8666C191.054 46.7183 191.069 46.5255 191.069 46.2883V40.8838Z" fill="black"/>
<path id="Vector_51" d="M188.147 41.1062H187.659C187.652 40.8986 187.637 40.7244 187.614 40.5835C187.591 40.4426 187.542 40.3314 187.467 40.2499C187.399 40.1609 187.297 40.1016 187.161 40.072C187.024 40.0349 186.839 40.0164 186.605 40.0164H185.063V46.2772C185.063 46.5218 185.074 46.7183 185.097 46.8666C185.127 47.0074 185.184 47.1186 185.267 47.2002C185.343 47.2817 185.452 47.3373 185.596 47.367C185.739 47.3966 185.925 47.4115 186.151 47.4115V47.8118C185.962 47.8118 185.724 47.8118 185.437 47.8118C185.15 47.8044 184.851 47.8007 184.541 47.8007C184.239 47.8007 183.944 47.8044 183.657 47.8118C183.37 47.8118 183.135 47.8155 182.954 47.8229V47.4115C183.173 47.4115 183.351 47.3966 183.487 47.367C183.63 47.3373 183.744 47.2817 183.827 47.2002C183.903 47.1186 183.955 47.0074 183.986 46.8666C184.016 46.7183 184.031 46.5218 184.031 46.2772V40.0164H182.727C182.478 40.0164 182.274 40.0312 182.115 40.0608C181.956 40.0905 181.828 40.1461 181.729 40.2276C181.631 40.3018 181.552 40.413 181.491 40.5613C181.431 40.7021 181.374 40.8838 181.321 41.1062H180.822L180.981 39.4492C181.457 39.4715 182.013 39.4863 182.648 39.4937C183.29 39.5011 183.944 39.5048 184.609 39.5048C185.275 39.5048 185.925 39.5011 186.56 39.4937C187.202 39.4863 187.765 39.4715 188.249 39.4492L188.147 41.1062Z" fill="black"/>
<path id="Vector_52" d="M174.807 43.196H176.428C176.7 43.196 176.889 43.133 176.995 43.007C177.101 42.8736 177.154 42.5955 177.154 42.173H177.619V44.9197H177.154C177.154 44.6751 177.142 44.4786 177.12 44.3303C177.105 44.1821 177.071 44.0672 177.018 43.9856C176.965 43.9041 176.889 43.8522 176.791 43.8299C176.693 43.8003 176.568 43.7854 176.417 43.7854H174.807V46.3209C174.807 46.5433 174.822 46.7212 174.852 46.8547C174.882 46.9881 174.943 47.0919 175.033 47.166C175.132 47.2402 175.264 47.2884 175.43 47.3106C175.604 47.3254 175.831 47.3329 176.111 47.3329H176.95C177.237 47.3329 177.475 47.3143 177.664 47.2773C177.861 47.2328 178.023 47.1549 178.152 47.0437C178.288 46.9399 178.401 46.7954 178.492 46.61C178.59 46.4173 178.684 46.1726 178.775 45.8761H179.274C179.176 46.18 179.074 46.5062 178.968 46.8547C178.87 47.1957 178.787 47.5145 178.718 47.811C178.235 47.8036 177.732 47.7999 177.21 47.7999C176.689 47.7925 176.164 47.7888 175.634 47.7888C175.113 47.7888 174.599 47.7925 174.092 47.7999C173.586 47.7999 173.106 47.8036 172.652 47.811V47.4107C172.887 47.4107 173.076 47.3959 173.219 47.3662C173.37 47.3366 173.488 47.281 173.571 47.1994C173.646 47.1253 173.699 47.0178 173.73 46.8769C173.76 46.7286 173.775 46.5433 173.775 46.3209V40.8719C173.775 40.6495 173.76 40.4752 173.73 40.3492C173.699 40.2158 173.646 40.1157 173.571 40.049C173.488 39.9822 173.37 39.9378 173.219 39.9155C173.076 39.8933 172.887 39.8822 172.652 39.8822V39.4707C173.091 39.4855 173.556 39.4967 174.047 39.5041C174.538 39.5041 175.033 39.5041 175.532 39.5041C176.031 39.5041 176.523 39.5041 177.006 39.5041C177.49 39.4967 177.944 39.4855 178.367 39.4707V41.3612H177.913C177.876 41.0498 177.83 40.8014 177.777 40.6161C177.732 40.4308 177.653 40.2862 177.539 40.1824C177.433 40.086 177.286 40.023 177.097 39.9934C176.908 39.9563 176.662 39.9378 176.36 39.9378H174.807V43.196Z" fill="black"/>
<path id="Vector_53" d="M165.138 47.889H164.741L161.645 41.3169L161.555 46.2988C161.555 46.7066 161.611 46.992 161.725 47.1551C161.838 47.3182 162.088 47.4071 162.473 47.422V47.8112C162.292 47.8112 162.065 47.8112 161.793 47.8112C161.528 47.8038 161.252 47.8001 160.965 47.8001C160.678 47.8001 160.398 47.8038 160.126 47.8112C159.861 47.8112 159.638 47.8149 159.457 47.8223V47.4109C159.722 47.4034 159.941 47.3886 160.115 47.3664C160.289 47.3367 160.428 47.2811 160.534 47.1996C160.648 47.1254 160.727 47.0142 160.772 46.866C160.825 46.7177 160.859 46.5175 160.874 46.2654L160.999 40.8276C160.999 40.4717 160.92 40.2233 160.761 40.0825C160.602 39.9416 160.33 39.8712 159.945 39.8712V39.4486C160.066 39.4634 160.213 39.4746 160.387 39.482C160.568 39.482 160.75 39.482 160.931 39.482C161.112 39.482 161.283 39.482 161.441 39.482C161.6 39.4746 161.721 39.4634 161.804 39.4486L165.115 46.4656L168.335 39.4597C168.426 39.4746 168.562 39.482 168.743 39.482C168.932 39.482 169.129 39.482 169.333 39.482C169.537 39.482 169.73 39.4783 169.911 39.4709C170.093 39.4634 170.225 39.4523 170.308 39.4375V39.8712C169.885 39.8712 169.601 39.9453 169.458 40.0936C169.322 40.2419 169.254 40.4828 169.254 40.8164L169.378 46.2654C169.386 46.5027 169.405 46.6954 169.435 46.8437C169.473 46.992 169.541 47.1069 169.639 47.1884C169.73 47.2774 169.858 47.3367 170.025 47.3664C170.198 47.396 170.429 47.4109 170.716 47.4109V47.8112C170.535 47.8112 170.278 47.8112 169.945 47.8112C169.62 47.8112 169.276 47.8112 168.913 47.8112C168.551 47.8112 168.203 47.8112 167.87 47.8112C167.538 47.8112 167.288 47.8112 167.122 47.8112V47.4109C167.379 47.4109 167.587 47.396 167.746 47.3664C167.912 47.3367 168.04 47.2811 168.131 47.1996C168.214 47.118 168.271 47.0031 168.301 46.8548C168.339 46.7066 168.358 46.5101 168.358 46.2654L168.29 41.1056L165.138 47.889Z" fill="black"/>
<path id="Vector_54" d="M152.488 45.7547H152.976C153.021 45.9845 153.082 46.2069 153.157 46.4219C153.24 46.6369 153.346 46.826 153.475 46.9891C153.603 47.1522 153.762 47.2819 153.951 47.3783C154.14 47.4747 154.37 47.5229 154.643 47.5229C155.164 47.5229 155.591 47.3783 155.924 47.0892C156.256 46.8 156.423 46.4368 156.423 45.9994C156.423 45.7399 156.374 45.5175 156.275 45.3321C156.177 45.1394 156.049 44.9689 155.89 44.8206C155.731 44.6797 155.55 44.55 155.346 44.4314C155.142 44.3128 154.93 44.1904 154.711 44.0644C154.484 43.9458 154.253 43.8197 154.019 43.6863C153.785 43.5454 153.573 43.3823 153.384 43.197C153.195 43.0042 153.04 42.7855 152.919 42.5409C152.798 42.2888 152.738 41.9923 152.738 41.6513C152.738 41.2509 152.802 40.9025 152.93 40.6059C153.067 40.3094 153.252 40.061 153.486 39.8609C153.713 39.6681 153.985 39.5235 154.302 39.4272C154.62 39.3234 154.96 39.2715 155.323 39.2715C155.459 39.2715 155.587 39.2789 155.708 39.2937C155.829 39.3086 155.947 39.3234 156.06 39.3382C156.173 39.353 156.287 39.3716 156.4 39.3938C156.513 39.4161 156.634 39.4346 156.763 39.4494L156.978 41.073H156.491C156.423 40.6356 156.283 40.3094 156.071 40.0944C155.867 39.8794 155.561 39.7719 155.153 39.7719C154.631 39.7719 154.238 39.9128 153.974 40.1945C153.717 40.4762 153.588 40.8209 153.588 41.2287C153.588 41.4882 153.645 41.7217 153.758 41.9293C153.872 42.1294 154.019 42.3111 154.2 42.4742C154.382 42.6447 154.586 42.7967 154.813 42.9301C155.047 43.0636 155.285 43.1859 155.527 43.2971C155.754 43.4157 155.981 43.5417 156.207 43.6752C156.434 43.8012 156.634 43.9495 156.808 44.12C156.99 44.2905 157.133 44.4907 157.239 44.7205C157.353 44.9503 157.409 45.2246 157.409 45.5434C157.409 45.9512 157.326 46.3107 157.16 46.6221C156.993 46.9261 156.778 47.1781 156.513 47.3783C156.249 47.5859 155.947 47.7416 155.606 47.8453C155.266 47.9491 154.922 48.001 154.575 48.001C154.227 48.001 153.909 47.9714 153.622 47.9121C153.342 47.8528 153.055 47.7564 152.76 47.6229L152.488 45.7547Z" fill="black"/>
<path id="Vector_55" d="M150.043 43.5973C150.043 44.1459 149.941 44.6871 149.737 45.2209C149.533 45.7473 149.245 46.2143 148.875 46.6221C148.505 47.0373 148.059 47.3709 147.537 47.6229C147.023 47.875 146.449 48.001 145.814 48.001C145.232 48.001 144.684 47.8861 144.17 47.6563C143.656 47.4191 143.21 47.104 142.832 46.7111C142.446 46.3181 142.144 45.8622 141.925 45.3432C141.705 44.8169 141.596 44.2646 141.596 43.6863C141.596 43.1377 141.698 42.6002 141.902 42.0738C142.106 41.5475 142.393 41.0767 142.764 40.6615C143.134 40.2464 143.58 39.9128 144.102 39.6607C144.631 39.4012 145.213 39.2715 145.848 39.2715C146.422 39.2715 146.963 39.3901 147.469 39.6273C147.983 39.8646 148.429 40.1797 148.807 40.5726C149.193 40.9729 149.495 41.4363 149.714 41.9626C149.933 42.4816 150.043 43.0265 150.043 43.5973ZM148.852 43.9309C148.852 43.4935 148.788 43.0339 148.66 42.552C148.531 42.0627 148.335 41.6105 148.07 41.1953C147.813 40.7876 147.484 40.4503 147.084 40.1834C146.69 39.9091 146.229 39.7719 145.7 39.7719C145.269 39.7719 144.873 39.8609 144.51 40.0388C144.154 40.2167 143.848 40.4614 143.591 40.7727C143.327 41.0915 143.123 41.4696 142.979 41.907C142.843 42.3444 142.775 42.8226 142.775 43.3416C142.775 43.7864 142.839 44.2571 142.968 44.7539C143.096 45.2432 143.293 45.6917 143.557 46.0994C143.822 46.5146 144.151 46.8556 144.544 47.1225C144.944 47.3894 145.413 47.5229 145.95 47.5229C146.403 47.5229 146.808 47.4376 147.163 47.2671C147.526 47.0892 147.832 46.8408 148.081 46.522C148.331 46.2032 148.52 45.8251 148.648 45.3877C148.784 44.9429 148.852 44.4573 148.852 43.9309Z" fill="black"/>
<path id="Vector_56" d="M139.197 41.718H138.777C138.664 41.0359 138.411 40.5429 138.018 40.239C137.625 39.9276 137.084 39.7719 136.396 39.7719C135.905 39.7719 135.451 39.8646 135.036 40.0499C134.62 40.2278 134.257 40.4799 133.947 40.8061C133.645 41.1323 133.407 41.5252 133.233 41.9849C133.059 42.4371 132.972 42.9375 132.972 43.4861C132.972 44.094 133.067 44.6464 133.256 45.1431C133.445 45.6398 133.702 46.0661 134.027 46.4219C134.352 46.7704 134.733 47.041 135.172 47.2337C135.618 47.4265 136.09 47.5229 136.589 47.5229C137.201 47.5229 137.689 47.3338 138.052 46.9557C138.415 46.5702 138.653 46.0846 138.766 45.4989H139.231L138.914 47.4005C138.785 47.4821 138.619 47.5599 138.415 47.6341C138.211 47.7082 137.991 47.7712 137.757 47.8231C137.515 47.8824 137.273 47.9269 137.031 47.9565C136.789 47.9862 136.57 48.001 136.374 48.001C135.701 48.001 135.089 47.8972 134.537 47.6897C133.985 47.4747 133.509 47.1707 133.108 46.7778C132.708 46.3849 132.398 45.9141 132.178 45.3655C131.959 44.8169 131.85 44.2015 131.85 43.5195C131.85 42.9042 131.974 42.337 132.224 41.8181C132.481 41.2991 132.817 40.8506 133.233 40.4725C133.656 40.0944 134.136 39.8016 134.673 39.594C135.21 39.379 135.765 39.2715 136.34 39.2715C136.816 39.2715 137.288 39.3382 137.757 39.4717C138.233 39.5977 138.672 39.7385 139.072 39.8942L139.197 41.718Z" fill="black"/>
<path id="Vector_57" d="M125.327 41.1062H124.839C124.832 40.8986 124.816 40.7244 124.794 40.5835C124.771 40.4426 124.722 40.3314 124.646 40.2499C124.578 40.1609 124.476 40.1016 124.34 40.072C124.204 40.0349 124.019 40.0164 123.785 40.0164H122.243V46.2772C122.243 46.5218 122.254 46.7183 122.277 46.8666C122.307 47.0074 122.364 47.1186 122.447 47.2002C122.522 47.2817 122.632 47.3373 122.775 47.367C122.919 47.3966 123.104 47.4115 123.331 47.4115V47.8118C123.142 47.8118 122.904 47.8118 122.617 47.8118C122.33 47.8044 122.031 47.8007 121.721 47.8007C121.419 47.8007 121.124 47.8044 120.837 47.8118C120.549 47.8118 120.315 47.8155 120.134 47.8229V47.4115C120.353 47.4115 120.53 47.3966 120.667 47.367C120.81 47.3373 120.924 47.2817 121.007 47.2002C121.082 47.1186 121.135 47.0074 121.165 46.8666C121.196 46.7183 121.211 46.5218 121.211 46.2772V40.0164H119.907C119.657 40.0164 119.453 40.0312 119.295 40.0608C119.136 40.0905 119.007 40.1461 118.909 40.2276C118.811 40.3018 118.731 40.413 118.671 40.5613C118.61 40.7021 118.554 40.8838 118.501 41.1062H118.002L118.161 39.4492C118.637 39.4715 119.193 39.4863 119.827 39.4937C120.47 39.5011 121.124 39.5048 121.789 39.5048C122.454 39.5048 123.104 39.5011 123.739 39.4937C124.382 39.4863 124.945 39.4715 125.429 39.4492L125.327 41.1062Z" fill="black"/>
<path id="Vector_58" d="M116.134 41.718H115.715C115.602 41.0359 115.348 40.5429 114.955 40.239C114.562 39.9276 114.022 39.7719 113.334 39.7719C112.843 39.7719 112.389 39.8646 111.973 40.0499C111.557 40.2278 111.195 40.4799 110.885 40.8061C110.582 41.1323 110.344 41.5252 110.17 41.9849C109.997 42.4371 109.91 42.9375 109.91 43.4861C109.91 44.094 110.004 44.6464 110.193 45.1431C110.382 45.6398 110.639 46.0661 110.964 46.4219C111.289 46.7704 111.671 47.041 112.109 47.2337C112.555 47.4265 113.028 47.5229 113.527 47.5229C114.139 47.5229 114.626 47.3338 114.989 46.9557C115.352 46.5702 115.59 46.0846 115.704 45.4989H116.169L115.851 47.4005C115.723 47.4821 115.556 47.5599 115.352 47.6341C115.148 47.7082 114.929 47.7712 114.694 47.8231C114.453 47.8824 114.211 47.9269 113.969 47.9565C113.727 47.9862 113.508 48.001 113.311 48.001C112.638 48.001 112.026 47.8972 111.474 47.6897C110.923 47.4747 110.446 47.1707 110.046 46.7778C109.645 46.3849 109.335 45.9141 109.116 45.3655C108.897 44.8169 108.787 44.2015 108.787 43.5195C108.787 42.9042 108.912 42.337 109.161 41.8181C109.418 41.2991 109.755 40.8506 110.17 40.4725C110.594 40.0944 111.074 39.8016 111.61 39.594C112.147 39.379 112.703 39.2715 113.277 39.2715C113.753 39.2715 114.226 39.3382 114.694 39.4717C115.171 39.5977 115.609 39.7385 116.01 39.8942L116.134 41.718Z" fill="black"/>
<path id="Vector_59" d="M102.262 43.196H103.883C104.155 43.196 104.344 43.133 104.45 43.007C104.556 42.8736 104.609 42.5955 104.609 42.173H105.074V44.9197H104.609C104.609 44.6751 104.597 44.4786 104.575 44.3303C104.56 44.1821 104.526 44.0672 104.473 43.9856C104.42 43.9041 104.344 43.8522 104.246 43.8299C104.148 43.8003 104.023 43.7854 103.872 43.7854H102.262V46.3209C102.262 46.5433 102.277 46.7212 102.307 46.8547C102.337 46.9881 102.398 47.0919 102.489 47.166C102.587 47.2402 102.719 47.2884 102.885 47.3106C103.059 47.3254 103.286 47.3329 103.566 47.3329H104.405C104.692 47.3329 104.93 47.3143 105.119 47.2773C105.316 47.2328 105.478 47.1549 105.607 47.0437C105.743 46.9399 105.856 46.7954 105.947 46.61C106.045 46.4173 106.14 46.1726 106.23 45.8761H106.729C106.631 46.18 106.529 46.5062 106.423 46.8547C106.325 47.1957 106.242 47.5145 106.174 47.811C105.69 47.8036 105.187 47.7999 104.666 47.7999C104.144 47.7925 103.619 47.7888 103.089 47.7888C102.568 47.7888 102.054 47.7925 101.547 47.7999C101.041 47.7999 100.561 47.8036 100.107 47.811V47.4107C100.342 47.4107 100.531 47.3959 100.674 47.3662C100.826 47.3366 100.943 47.281 101.026 47.1994C101.101 47.1253 101.154 47.0178 101.185 46.8769C101.215 46.7286 101.23 46.5433 101.23 46.3209V40.8719C101.23 40.6495 101.215 40.4752 101.185 40.3492C101.154 40.2158 101.101 40.1157 101.026 40.049C100.943 39.9822 100.826 39.9378 100.674 39.9155C100.531 39.8933 100.342 39.8822 100.107 39.8822V39.4707C100.546 39.4855 101.011 39.4967 101.502 39.5041C101.993 39.5041 102.489 39.5041 102.987 39.5041C103.486 39.5041 103.978 39.5041 104.461 39.5041C104.945 39.4967 105.399 39.4855 105.822 39.4707V41.3612H105.369C105.331 41.0498 105.285 40.8014 105.232 40.6161C105.187 40.4308 105.108 40.2862 104.994 40.1824C104.889 40.086 104.741 40.023 104.552 39.9934C104.363 39.9563 104.117 39.9378 103.815 39.9378H102.262V43.196Z" fill="black"/>
<path id="Vector_60" d="M94.543 46.3C94.543 46.5595 94.5506 46.7634 94.5657 46.9116C94.5884 47.0525 94.6375 47.16 94.7131 47.2341C94.7887 47.3083 94.8983 47.3564 95.0419 47.3787C95.1855 47.4009 95.3821 47.412 95.6315 47.412V47.8235C95.4728 47.8235 95.2422 47.8235 94.9398 47.8235C94.6375 47.8161 94.3238 47.8124 93.9987 47.8124C93.6661 47.8124 93.3487 47.8161 93.0463 47.8235C92.7515 47.8235 92.5323 47.8235 92.3887 47.8235V47.412C92.6457 47.412 92.846 47.4009 92.9896 47.3787C93.1408 47.3564 93.2542 47.3046 93.3298 47.223C93.4054 47.1489 93.4545 47.0377 93.4772 46.8894C93.4999 46.7411 93.5112 46.5447 93.5112 46.3V40.8732C93.5112 40.6508 93.4961 40.4766 93.4658 40.3506C93.4432 40.2245 93.394 40.1282 93.3184 40.0614C93.2353 39.9947 93.1181 39.9502 92.9669 39.928C92.8233 39.9058 92.6306 39.8909 92.3887 39.8835V39.4609C92.8271 39.4758 93.2844 39.4869 93.7606 39.4943C94.2444 39.4943 94.732 39.4943 95.2233 39.4943C95.7146 39.4943 96.2022 39.4943 96.686 39.4943C97.1698 39.4869 97.6384 39.4758 98.092 39.4609L98.16 41.2736L97.6724 41.2624C97.6271 41.0178 97.578 40.8139 97.525 40.6508C97.4797 40.4803 97.4041 40.3432 97.2983 40.2394C97.1924 40.1356 97.045 40.0614 96.8561 40.017C96.6746 39.9651 96.429 39.9391 96.1191 39.9391H94.543V43.1974H96.1191C96.4214 43.1974 96.6293 43.1418 96.7427 43.0306C96.8561 42.9194 96.9241 42.6451 96.9468 42.2077H97.457C97.4419 42.356 97.4306 42.5487 97.423 42.7859C97.423 43.0158 97.423 43.2567 97.423 43.5088C97.423 43.7683 97.423 44.0203 97.423 44.265C97.4306 44.5096 97.4419 44.7098 97.457 44.8655H96.9808C96.9581 44.4429 96.8901 44.1575 96.7767 44.0092C96.6709 43.8609 96.463 43.7868 96.1531 43.7868H94.543V46.3Z" fill="black"/>
<path id="Vector_61" d="M86.8262 46.3C86.8262 46.5595 86.8338 46.7634 86.8489 46.9116C86.8716 47.0525 86.9207 47.16 86.9963 47.2341C87.0719 47.3083 87.1815 47.3564 87.3251 47.3787C87.4687 47.4009 87.6653 47.412 87.9147 47.412V47.8235C87.756 47.8235 87.5254 47.8235 87.2231 47.8235C86.9207 47.8161 86.607 47.8124 86.282 47.8124C85.9494 47.8124 85.6319 47.8161 85.3295 47.8235C85.0347 47.8235 84.8155 47.8235 84.6719 47.8235V47.412C84.9289 47.412 85.1292 47.4009 85.2728 47.3787C85.424 47.3564 85.5374 47.3046 85.613 47.223C85.6886 47.1489 85.7377 47.0377 85.7604 46.8894C85.7831 46.7411 85.7944 46.5447 85.7944 46.3V40.8732C85.7944 40.6508 85.7793 40.4766 85.749 40.3506C85.7264 40.2245 85.6772 40.1282 85.6016 40.0614C85.5185 39.9947 85.4013 39.9502 85.2501 39.928C85.1065 39.9058 84.9138 39.8909 84.6719 39.8835V39.4609C85.1103 39.4758 85.5676 39.4869 86.0438 39.4943C86.5276 39.4943 87.0152 39.4943 87.5065 39.4943C87.9979 39.4943 88.4854 39.4943 88.9692 39.4943C89.453 39.4869 89.9216 39.4758 90.3752 39.4609L90.4432 41.2736L89.9556 41.2624C89.9103 41.0178 89.8612 40.8139 89.8082 40.6508C89.7629 40.4803 89.6873 40.3432 89.5815 40.2394C89.4756 40.1356 89.3282 40.0614 89.1393 40.017C88.9578 39.9651 88.7122 39.9391 88.4023 39.9391H86.8262V43.1974H88.4023C88.7046 43.1974 88.9125 43.1418 89.0259 43.0306C89.1393 42.9194 89.2073 42.6451 89.23 42.2077H89.7402C89.7251 42.356 89.7138 42.5487 89.7062 42.7859C89.7062 43.0158 89.7062 43.2567 89.7062 43.5088C89.7062 43.7683 89.7062 44.0203 89.7062 44.265C89.7138 44.5096 89.7251 44.7098 89.7402 44.8655H89.264C89.2413 44.4429 89.1733 44.1575 89.0599 44.0092C88.9541 43.8609 88.7462 43.7868 88.4363 43.7868H86.8262V46.3Z" fill="black"/>
<path id="Vector_62" d="M78.4395 43.196H80.0609C80.333 43.196 80.522 43.133 80.6278 43.007C80.7337 42.8736 80.7866 42.5955 80.7866 42.173H81.2514V44.9197H80.7866C80.7866 44.6751 80.7752 44.4786 80.7525 44.3303C80.7374 44.1821 80.7034 44.0672 80.6505 43.9856C80.5976 43.9041 80.522 43.8522 80.4237 43.8299C80.3255 43.8003 80.2007 43.7854 80.0496 43.7854H78.4395V46.3209C78.4395 46.5433 78.4546 46.7212 78.4848 46.8547C78.5151 46.9881 78.5755 47.0919 78.6663 47.166C78.7645 47.2402 78.8968 47.2884 79.0631 47.3106C79.237 47.3254 79.4637 47.3329 79.7434 47.3329H80.5825C80.8697 47.3329 81.1078 47.3143 81.2968 47.2773C81.4933 47.2328 81.6559 47.1549 81.7844 47.0437C81.9204 46.9399 82.0338 46.7954 82.1245 46.61C82.2228 46.4173 82.3173 46.1726 82.408 45.8761H82.9069C82.8086 46.18 82.7066 46.5062 82.6007 46.8547C82.5025 47.1957 82.4193 47.5145 82.3513 47.811C81.8675 47.8036 81.3648 47.7999 80.8433 47.7999C80.3217 47.7925 79.7963 47.7888 79.2672 47.7888C78.7456 47.7888 78.2316 47.7925 77.7252 47.7999C77.2187 47.7999 76.7387 47.8036 76.2852 47.811V47.4107C76.5195 47.4107 76.7085 47.3959 76.8521 47.3662C77.0033 47.3366 77.1204 47.281 77.2036 47.1994C77.2792 47.1253 77.3321 47.0178 77.3623 46.8769C77.3926 46.7286 77.4077 46.5433 77.4077 46.3209V40.8719C77.4077 40.6495 77.3926 40.4752 77.3623 40.3492C77.3321 40.2158 77.2792 40.1157 77.2036 40.049C77.1204 39.9822 77.0033 39.9378 76.8521 39.9155C76.7085 39.8933 76.5195 39.8822 76.2852 39.8822V39.4707C76.7236 39.4855 77.1885 39.4967 77.6798 39.5041C78.1711 39.5041 78.6663 39.5041 79.1651 39.5041C79.664 39.5041 80.1554 39.5041 80.6392 39.5041C81.1229 39.4967 81.5765 39.4855 81.9998 39.4707V41.3612H81.5462C81.5085 41.0498 81.4631 40.8014 81.4102 40.6161C81.3648 40.4308 81.2855 40.2862 81.1721 40.1824C81.0662 40.086 80.9188 40.023 80.7299 39.9934C80.5409 39.9563 80.2952 39.9378 79.9929 39.9378H78.4395V43.196Z" fill="black"/>
</g>
<g id="Group_2">
<path id="Vector_63" d="M85.1939 9.78664L85.1886 10.0454H84.7004C83.8165 10.0454 83.0987 10.7339 83.0723 11.5931V24.9706C83.0723 26.6399 83.3124 28.2729 83.3124 28.2729H83.0723L68.6724 13.2106V26.1042C68.6988 26.9634 69.4192 27.6544 70.3006 27.6544H70.7887V27.9132H65.3555V27.6544H65.8463C66.7356 27.6544 67.4586 26.9556 67.4771 26.086V12.6335C67.4771 10.8659 67.2343 9.39844 67.2343 9.39844H67.4955L81.8743 24.4556V11.6138C81.8585 10.7442 81.1354 10.0454 80.2435 10.0454H79.7554L79.7501 9.78664H85.1913H85.1939Z" fill="black"/>
<path id="Vector_64" d="M107.804 26.0234C108.337 27.1751 109.313 27.6539 110.123 27.6539H110.345V27.9127H104.4V27.6565H104.632C105.313 27.6565 106.02 27.0664 105.635 26.0312L103.946 21.6212H96.8345L95.0665 26.0467C94.6944 27.0742 95.3963 27.6565 96.0745 27.6565H96.3067V27.9127H90.9922V27.6539H91.2297C92.0319 27.6539 93.0082 27.1777 93.5413 26.026L99.5287 12.0921C99.5287 12.0921 100.508 9.99578 100.508 9.42383H100.745L107.804 26.0234ZM103.648 20.8448L100.465 12.5346L97.1432 20.8448H103.645H103.648Z" fill="black"/>
<path id="Vector_65" d="M126.11 9.76009C127.25 9.75491 128.797 9.49352 129.29 9.28906V12.5448H129.024V12.079C129.024 11.2482 128.356 10.5727 127.52 10.5365H122.516V26.0466C122.545 26.9394 123.29 27.6537 124.208 27.6537H124.543L124.548 27.9125H118.769L118.775 27.6537H119.11C120.02 27.6537 120.759 26.9498 120.799 26.0673V10.5365H115.79C114.954 10.5727 114.286 11.2482 114.286 12.079V12.5396H114.02V9.28906C114.513 9.49352 116.057 9.75491 117.199 9.76009H126.116H126.11Z" fill="black"/>
<path id="Vector_66" d="M154.489 9.78711V10.0459H154.059C153.318 10.0459 152.711 10.5557 152.666 11.27V21.5109C152.666 25.5715 149.819 28.2786 145.549 28.2786C141.28 28.2786 138.226 25.5896 138.226 21.5575V11.3322C138.213 10.5868 137.593 10.0511 136.831 10.0511H136.4V9.79229H141.762V10.0511H141.332C140.583 10.0511 139.973 10.5687 139.942 11.2933V21.177C139.942 24.9504 142.185 27.4633 145.546 27.4633C148.908 27.4633 151.426 25.0824 151.431 21.5109V11.2959C151.399 10.5687 150.787 10.0485 150.038 10.0485H149.608V9.7897H154.489V9.78711Z" fill="black"/>
<path id="Vector_67" d="M169.449 9.78711C172.647 9.78711 174.608 11.6375 174.608 14.6526C174.608 17.1604 172.663 19.5906 170.122 19.5906C170.689 19.8468 171.499 20.7034 172.011 21.4125C172.011 21.4125 174.288 24.601 175.31 25.6957C176.37 26.8345 177.349 27.6419 178.901 27.6549V27.9137H177.452C174.996 27.9137 173.676 26.6145 172.845 25.644C172.544 25.292 169.57 21.0476 169.367 20.7966C168.676 19.9451 167.908 19.0497 166.942 19.0497V18.809C166.942 18.809 167.544 18.8219 168.338 18.8012C169.707 18.765 171.71 18.4441 172.46 16.1123C172.576 15.7499 172.644 15.1288 172.629 14.562C172.563 12.2199 171.32 10.7214 169.354 10.6153C168.008 10.5428 166.409 10.6075 166.069 10.5946V26.027C166.084 26.9276 166.836 27.6549 167.76 27.6549H168.095L168.1 27.9137H162.332L162.337 27.6549H162.672C163.593 27.6549 164.34 26.9354 164.364 26.0399V11.6738C164.345 10.7732 163.596 10.0459 162.672 10.0459H162.337L162.332 9.7897H169.454L169.449 9.78711Z" fill="black"/>
<path id="Vector_68" d="M199.651 26.0234C200.184 27.1751 201.16 27.6539 201.97 27.6539H202.192V27.9127H196.247V27.6565H196.479C197.16 27.6565 197.867 27.0664 197.482 26.0312L195.793 21.6212H188.681L186.913 26.0467C186.541 27.0742 187.243 27.6565 187.924 27.6565H188.156V27.9127H182.842V27.6539H183.079C183.881 27.6539 184.858 27.1777 185.391 26.026L191.378 12.0921C191.378 12.0921 192.357 9.99578 192.357 9.42383H192.595L199.654 26.0234H199.651ZM195.495 20.8448L192.312 12.5346L188.99 20.8448H195.492H195.495Z" fill="black"/>
<path id="Vector_69" d="M221.25 23.7308L219.711 27.913H208.766L208.771 27.6542H209.106C210.03 27.6542 210.779 26.927 210.797 26.0264V11.6757C210.779 10.7751 210.03 10.0479 209.106 10.0479H208.771L208.766 9.78906H214.542L214.537 10.0479H214.202C213.278 10.0479 212.529 10.7751 212.51 11.6757V27.1211H216.297C219.094 27.1211 220.168 25.7029 220.983 23.7308H221.247H221.25Z" fill="black"/>
</g>
</g>
</g>
</svg>
