<svg width="48" height="48" viewBox="0 0 48 48" fill="none" xmlns="http://www.w3.org/2000/svg">
<g id="&#195;&#141;cone Pix">
<path id="Pix" d="M23.2219 26.1814C23.5387 25.8642 24.0843 25.8642 24.4012 26.1814L28.9188 30.7044C29.752 31.5385 30.8608 31.9967 32.0343 31.9967H32.9202L27.2232 37.7004C25.4455 39.4332 22.5589 39.4332 20.7811 37.7004L15.0607 31.9791H15.6063C16.7798 31.9791 17.8887 31.5209 18.7218 30.6868L23.2219 26.1814ZM24.4012 21.8582C24.0257 22.1812 23.5445 22.1871 23.2219 21.8582L18.7218 17.3528C17.8887 16.4658 16.7798 16.0605 15.6063 16.0605H15.0607L20.7753 10.3369C22.5589 8.55437 25.4455 8.55437 27.2232 10.3369L32.9261 16.0429H32.0343C30.8608 16.0429 29.752 16.5011 28.9188 17.3352L24.4012 21.8582ZM15.6063 17.3822C16.416 17.3822 17.1611 17.7111 17.783 18.2868L22.2831 22.7921C22.7056 23.1622 23.2571 23.4265 23.8144 23.4265C24.3659 23.4265 24.9175 23.1622 25.3399 22.7921L29.8576 18.2692C30.4325 17.6994 31.2246 17.3704 32.0343 17.3704H34.2462L37.6667 20.795C39.4444 22.5748 39.4444 25.4648 37.6667 27.2446L34.2462 30.6692H32.0343C31.2246 30.6692 30.4325 30.3402 29.8576 29.7646L25.3399 25.2416C24.5244 24.4251 23.0986 24.4251 22.2831 25.2475L17.783 29.747C17.1611 30.3226 16.416 30.6516 15.6063 30.6516H13.7394L10.3353 27.2446C8.55489 25.4648 8.55489 22.5748 10.3353 20.795L13.7394 17.3822H15.6063Z" fill="#4D5858"/>
</g>
</svg>
