<svg width="48" height="48" viewBox="0 0 48 48" fill="none" xmlns="http://www.w3.org/2000/svg">
<g id="&#195;&#141;cone WhatsApp">
<g id="WhatsApp">
<path fill-rule="evenodd" clip-rule="evenodd" d="M23.9937 35.4188C21.9187 35.4188 19.8875 34.8625 18.1187 33.8125L17.7 33.5625L13.3375 34.7062L14.5 30.45L14.225 30.0125C13.0687 28.175 12.4625 26.0562 12.4625 23.875C12.4625 17.5188 17.6375 12.3438 24 12.3438C27.0812 12.3438 29.975 13.5437 32.15 15.725C34.325 17.9062 35.6625 20.8 35.6562 23.8813C35.6562 30.2438 30.35 35.4188 23.9937 35.4188ZM27.95 25.6562C28.2688 25.7688 29.975 26.6063 30.3188 26.7812C30.6625 26.95 30.8938 27.0375 30.975 27.1938C31.0625 27.3375 31.0625 28.0312 30.775 28.8438C30.4875 29.6562 29.1063 30.3937 28.4375 30.4937C27.3375 30.6562 26.475 30.575 24.275 29.625C20.7937 28.1187 18.525 24.6188 18.35 24.3875C18.1813 24.1563 16.9375 22.5063 16.9375 20.8C16.9375 19.0938 17.8312 18.2563 18.15 17.9062C18.4688 17.5625 18.8438 17.475 19.075 17.475C19.3062 17.475 19.5375 17.475 19.7375 17.4875C19.95 17.5 20.2375 17.4062 20.5188 18.0813C20.8063 18.775 21.5 20.4812 21.5875 20.6562C21.675 20.8313 21.7312 21.0312 21.6187 21.2625C20.9562 22.5875 20.2438 22.5437 20.6 23.1562C21.9438 25.4625 23.2812 26.2625 25.3188 27.2812C25.6625 27.4562 25.8688 27.425 26.0688 27.1938C26.275 26.9563 26.9375 26.1812 27.1688 25.8312C27.4 25.4812 27.6313 25.5375 27.95 25.6562Z" fill="#4D5858"/>
<path fill-rule="evenodd" clip-rule="evenodd" d="M23.9937 10C27.7 10 31.1875 11.4437 33.8062 14.0687C36.425 16.6937 38 20.175 38 23.8813C38 31.5312 31.6375 37.7563 23.9937 37.7563H23.9875C21.6625 37.7563 19.3813 37.175 17.3562 36.0688L10 38L11.9688 30.8125C10.7563 28.7062 10.1187 26.3188 10.1187 23.875C10.1187 16.225 16.3437 10 23.9937 10ZM18.1187 33.8125C19.8875 34.8625 21.9187 35.4188 23.9937 35.4188C30.35 35.4188 35.6562 30.2438 35.6562 23.8813C35.6625 20.8 34.325 17.9062 32.15 15.725C29.975 13.5437 27.0812 12.3438 24 12.3438C17.6375 12.3438 12.4625 17.5188 12.4625 23.875C12.4625 26.0562 13.0687 28.175 14.225 30.0125L14.5 30.45L13.3375 34.7062L17.7 33.5625L18.1187 33.8125Z" fill="#4D5858"/>
</g>
</g>
</svg>
